<?xml version="1.0" encoding="utf-8"?>
<!-- Generator: Adobe Illustrator 27.5.0, SVG Export Plug-In . SVG Version: 6.00 Build 0)  -->
<svg version="1.1" xmlns="http://www.w3.org/2000/svg" xmlns:xlink="http://www.w3.org/1999/xlink" x="0px" y="0px"
	 viewBox="0 0 800 800" style="enable-background:new 0 0 800 800;" xml:space="preserve">
<g id="BACKGROUND">
	<rect y="-0.949" style="fill:#F9E169;" width="800" height="800.95"/>
</g>
<g id="DESIGNED_BY_FREEPIK">
	<g>
		<g>
			<path style="fill:#DD751F;" d="M286.024,774.286v-0.257c-0.349,0.398-0.692,0.724-1.031,0.973
				c-0.338,0.251-0.706,0.441-1.102,0.57c-0.396,0.132-0.827,0.195-1.296,0.195c-0.621,0-1.196-0.131-1.725-0.393
				c-0.528-0.263-0.986-0.639-1.372-1.126c-0.387-0.487-0.68-1.06-0.879-1.719c-0.199-0.659-0.299-1.371-0.299-2.137
				c0-1.621,0.396-2.886,1.188-3.791c0.792-0.904,1.833-1.357,3.125-1.357c0.747,0,1.377,0.129,1.89,0.384
				c0.513,0.257,1.013,0.652,1.501,1.183v-3.827c0-0.532,0.105-0.934,0.318-1.206c0.211-0.273,0.514-0.408,0.907-0.408
				c0.393,0,0.694,0.125,0.907,0.375c0.212,0.251,0.318,0.618,0.318,1.106v11.436c0,0.494-0.113,0.864-0.342,1.111
				c-0.228,0.246-0.522,0.37-0.883,0.37c-0.354,0-0.647-0.128-0.879-0.384C286.139,775.125,286.024,774.76,286.024,774.286z
				 M280.923,770.477c0,0.703,0.109,1.301,0.328,1.795c0.219,0.494,0.517,0.866,0.897,1.115c0.38,0.251,0.795,0.377,1.244,0.377
				c0.456,0,0.872-0.119,1.249-0.357c0.376-0.236,0.677-0.602,0.902-1.091c0.225-0.491,0.337-1.105,0.337-1.839
				c0-0.691-0.112-1.284-0.337-1.782c-0.225-0.496-0.528-0.876-0.912-1.14c-0.383-0.262-0.803-0.393-1.258-0.393
				c-0.475,0-0.899,0.135-1.273,0.403c-0.374,0.269-0.663,0.654-0.869,1.158C281.026,769.228,280.923,769.812,280.923,770.477z"/>
			<path style="fill:#DD751F;" d="M297.457,771.133h-5.071c0.006,0.588,0.125,1.107,0.357,1.557c0.23,0.45,0.538,0.789,0.921,1.017
				c0.383,0.228,0.806,0.341,1.268,0.341c0.31,0,0.593-0.035,0.85-0.107c0.257-0.074,0.505-0.187,0.746-0.343
				c0.241-0.154,0.462-0.321,0.665-0.499c0.202-0.178,0.464-0.419,0.788-0.723c0.133-0.113,0.323-0.171,0.571-0.171
				c0.266,0,0.48,0.074,0.645,0.22c0.164,0.146,0.248,0.351,0.248,0.617c0,0.234-0.093,0.507-0.275,0.821
				c-0.185,0.313-0.462,0.614-0.831,0.902c-0.372,0.288-0.836,0.526-1.397,0.717c-0.56,0.19-1.204,0.285-1.933,0.285
				c-1.664,0-2.96-0.476-3.884-1.425c-0.924-0.949-1.386-2.238-1.386-3.865c0-0.767,0.113-1.478,0.341-2.132
				c0.229-0.656,0.561-1.218,0.997-1.687c0.437-0.469,0.975-0.827,1.615-1.078c0.639-0.25,1.349-0.374,2.128-0.374
				c1.013,0,1.882,0.212,2.606,0.641c0.726,0.427,1.27,0.979,1.63,1.656c0.36,0.678,0.542,1.369,0.542,2.07
				c0,0.653-0.187,1.075-0.56,1.269C298.662,771.036,298.136,771.133,297.457,771.133z M292.386,769.661h4.702
				c-0.063-0.887-0.303-1.551-0.717-1.99c-0.415-0.44-0.961-0.66-1.638-0.66c-0.646,0-1.177,0.223-1.591,0.669
				C292.727,768.125,292.476,768.787,292.386,769.661z"/>
			<path style="fill:#DD751F;" d="M309.272,772.375c0,0.716-0.173,1.329-0.522,1.839c-0.348,0.51-0.862,0.896-1.543,1.159
				c-0.68,0.263-1.508,0.393-2.483,0.393c-0.931,0-1.729-0.143-2.394-0.428c-0.665-0.284-1.156-0.642-1.472-1.067
				c-0.317-0.429-0.475-0.857-0.475-1.288c0-0.285,0.101-0.528,0.304-0.731c0.202-0.202,0.459-0.304,0.77-0.304
				c0.271,0,0.48,0.066,0.626,0.199c0.146,0.133,0.286,0.32,0.418,0.56c0.266,0.464,0.585,0.807,0.956,1.036
				c0.37,0.227,0.875,0.342,1.515,0.342c0.519,0,0.945-0.116,1.277-0.347c0.332-0.233,0.498-0.496,0.498-0.794
				c0-0.456-0.172-0.787-0.518-0.996c-0.345-0.209-0.914-0.409-1.705-0.6c-0.893-0.221-1.619-0.454-2.18-0.698
				c-0.56-0.242-1.008-0.565-1.344-0.963c-0.336-0.399-0.503-0.891-0.503-1.473c0-0.518,0.155-1.01,0.465-1.473
				c0.31-0.461,0.768-0.83,1.373-1.106c0.604-0.276,1.333-0.414,2.188-0.414c0.671,0,1.275,0.069,1.809,0.21
				c0.536,0.138,0.983,0.326,1.34,0.561c0.358,0.233,0.63,0.493,0.816,0.777c0.187,0.285,0.28,0.564,0.28,0.837
				c0,0.297-0.1,0.541-0.298,0.732c-0.199,0.188-0.482,0.285-0.851,0.285c-0.266,0-0.492-0.076-0.679-0.229
				c-0.186-0.151-0.4-0.379-0.641-0.683c-0.196-0.253-0.426-0.456-0.693-0.608c-0.266-0.152-0.627-0.227-1.083-0.227
				c-0.469,0-0.857,0.099-1.168,0.3c-0.31,0.198-0.465,0.446-0.465,0.744c0,0.273,0.114,0.496,0.341,0.67
				c0.228,0.175,0.535,0.319,0.922,0.433c0.386,0.113,0.917,0.252,1.596,0.417c0.803,0.197,1.46,0.432,1.97,0.703
				c0.509,0.271,0.896,0.594,1.16,0.965C309.142,771.479,309.272,771.901,309.272,772.375z"/>
			<path style="fill:#DD751F;" d="M311.921,764.019c-0.361,0-0.669-0.111-0.926-0.333c-0.256-0.221-0.385-0.534-0.385-0.94
				c0-0.368,0.131-0.669,0.394-0.907c0.263-0.238,0.569-0.356,0.916-0.356c0.336,0,0.633,0.107,0.893,0.323
				c0.26,0.216,0.39,0.528,0.39,0.94c0,0.399-0.128,0.711-0.381,0.936C312.57,763.906,312.27,764.019,311.921,764.019z
				 M313.204,766.697v7.493c0,0.519-0.124,0.913-0.371,1.179c-0.248,0.266-0.56,0.398-0.94,0.398c-0.38,0-0.689-0.136-0.926-0.408
				c-0.238-0.273-0.356-0.662-0.356-1.169v-7.418c0-0.512,0.118-0.898,0.356-1.158c0.237-0.26,0.546-0.39,0.926-0.39
				c0.38,0,0.693,0.13,0.94,0.39C313.081,765.874,313.204,766.235,313.204,766.697z"/>
			<path style="fill:#DD751F;" d="M324.563,767.125v7.531c0,0.861-0.093,1.603-0.277,2.224c-0.182,0.619-0.477,1.133-0.883,1.538
				c-0.405,0.404-0.935,0.706-1.59,0.901c-0.655,0.197-1.471,0.295-2.446,0.295c-0.893,0-1.69-0.125-2.394-0.375
				c-0.702-0.251-1.243-0.573-1.624-0.969c-0.379-0.395-0.57-0.803-0.57-1.221c0-0.316,0.108-0.575,0.324-0.773
				c0.215-0.2,0.475-0.3,0.778-0.3c0.38,0,0.712,0.168,0.998,0.503c0.139,0.171,0.283,0.345,0.432,0.519
				c0.149,0.175,0.315,0.323,0.494,0.447c0.181,0.122,0.397,0.214,0.65,0.275c0.253,0.059,0.545,0.09,0.874,0.09
				c0.671,0,1.192-0.093,1.563-0.28c0.371-0.187,0.63-0.448,0.779-0.784c0.149-0.334,0.236-0.693,0.261-1.077
				c0.025-0.384,0.044-0.999,0.057-1.849c-0.4,0.559-0.859,0.983-1.382,1.274c-0.522,0.291-1.145,0.437-1.866,0.437
				c-0.868,0-1.626-0.222-2.275-0.665c-0.648-0.443-1.147-1.064-1.495-1.861c-0.349-0.799-0.522-1.719-0.522-2.764
				c0-0.778,0.105-1.483,0.317-2.108c0.213-0.628,0.515-1.156,0.907-1.587c0.393-0.431,0.845-0.755,1.358-0.974
				c0.513-0.218,1.076-0.327,1.691-0.327c0.734,0,1.371,0.142,1.909,0.422c0.538,0.283,1.039,0.725,1.5,1.326v-0.353
				c0-0.449,0.11-0.797,0.332-1.045c0.222-0.246,0.507-0.37,0.855-0.37c0.5,0,0.832,0.164,0.997,0.489
				C324.48,766.04,324.563,766.51,324.563,767.125z M317.05,770.411c0,1.051,0.229,1.846,0.688,2.384
				c0.459,0.539,1.053,0.808,1.781,0.808c0.43,0,0.837-0.116,1.22-0.347c0.384-0.232,0.695-0.58,0.937-1.045
				c0.24-0.466,0.361-1.03,0.361-1.695c0-1.057-0.232-1.881-0.698-2.469c-0.466-0.589-1.078-0.884-1.838-0.884
				c-0.741,0-1.335,0.282-1.78,0.846C317.272,768.571,317.05,769.373,317.05,770.411z"/>
			<path style="fill:#DD751F;" d="M328.684,766.659v0.313c0.455-0.602,0.954-1.043,1.496-1.325c0.542-0.281,1.163-0.423,1.866-0.423
				c0.684,0,1.295,0.15,1.833,0.447c0.538,0.298,0.941,0.719,1.206,1.262c0.172,0.317,0.282,0.66,0.332,1.026
				c0.051,0.368,0.077,0.836,0.077,1.406v4.824c0,0.519-0.119,0.913-0.357,1.179c-0.237,0.266-0.546,0.398-0.926,0.398
				c-0.387,0-0.7-0.136-0.94-0.408c-0.241-0.273-0.361-0.662-0.361-1.169v-4.321c0-0.855-0.119-1.509-0.356-1.961
				c-0.238-0.452-0.711-0.68-1.42-0.68c-0.461,0-0.883,0.138-1.263,0.413c-0.38,0.276-0.659,0.655-0.836,1.136
				c-0.126,0.387-0.19,1.107-0.19,2.165v3.248c0,0.525-0.123,0.921-0.365,1.184c-0.244,0.263-0.559,0.393-0.945,0.393
				c-0.375,0-0.681-0.136-0.922-0.408c-0.24-0.273-0.361-0.662-0.361-1.169v-7.493c0-0.494,0.108-0.863,0.323-1.107
				c0.215-0.243,0.51-0.365,0.883-0.365c0.229,0,0.435,0.054,0.619,0.162c0.183,0.108,0.331,0.269,0.441,0.483
				C328.628,766.086,328.684,766.349,328.684,766.659z"/>
			<path style="fill:#DD751F;" d="M344.458,771.133h-5.071c0.007,0.588,0.125,1.107,0.356,1.557c0.231,0.45,0.538,0.789,0.921,1.017
				c0.382,0.228,0.805,0.341,1.267,0.341c0.311,0,0.594-0.035,0.851-0.107c0.255-0.074,0.504-0.187,0.746-0.343
				c0.24-0.154,0.461-0.321,0.665-0.499c0.202-0.178,0.464-0.419,0.788-0.723c0.133-0.113,0.323-0.171,0.57-0.171
				c0.266,0,0.481,0.074,0.646,0.22c0.164,0.146,0.246,0.351,0.246,0.617c0,0.234-0.091,0.507-0.275,0.821
				c-0.184,0.313-0.461,0.614-0.832,0.902c-0.371,0.288-0.835,0.526-1.396,0.717c-0.56,0.19-1.205,0.285-1.933,0.285
				c-1.665,0-2.96-0.476-3.885-1.425c-0.923-0.949-1.386-2.238-1.386-3.865c0-0.767,0.114-1.478,0.342-2.132
				c0.228-0.656,0.561-1.218,0.998-1.687c0.436-0.469,0.975-0.827,1.614-1.078c0.639-0.25,1.349-0.374,2.128-0.374
				c1.013,0,1.881,0.212,2.606,0.641c0.726,0.427,1.269,0.979,1.63,1.656c0.36,0.678,0.542,1.369,0.542,2.07
				c0,0.653-0.186,1.075-0.561,1.269C345.662,771.036,345.136,771.133,344.458,771.133z M339.387,769.661h4.701
				c-0.063-0.887-0.302-1.551-0.717-1.99c-0.415-0.44-0.961-0.66-1.638-0.66c-0.647,0-1.177,0.223-1.592,0.669
				C339.726,768.125,339.476,768.787,339.387,769.661z"/>
			<path style="fill:#DD751F;" d="M355.028,774.286v-0.257c-0.348,0.398-0.691,0.724-1.03,0.973
				c-0.339,0.251-0.706,0.441-1.102,0.57c-0.395,0.132-0.828,0.195-1.296,0.195c-0.622,0-1.196-0.131-1.724-0.393
				c-0.529-0.263-0.986-0.639-1.373-1.126c-0.387-0.487-0.679-1.06-0.878-1.719c-0.2-0.659-0.299-1.371-0.299-2.137
				c0-1.621,0.396-2.886,1.187-3.791c0.792-0.904,1.833-1.357,3.125-1.357c0.747,0,1.377,0.129,1.89,0.384
				c0.513,0.257,1.013,0.652,1.5,1.183v-3.827c0-0.532,0.107-0.934,0.319-1.206c0.211-0.273,0.515-0.408,0.907-0.408
				c0.392,0,0.694,0.125,0.907,0.375c0.212,0.251,0.318,0.618,0.318,1.106v11.436c0,0.494-0.114,0.864-0.342,1.111
				c-0.228,0.246-0.522,0.37-0.883,0.37c-0.355,0-0.648-0.128-0.879-0.384C355.143,775.125,355.028,774.76,355.028,774.286z
				 M349.928,770.477c0,0.703,0.108,1.301,0.327,1.795c0.218,0.494,0.517,0.866,0.898,1.115c0.379,0.251,0.794,0.377,1.243,0.377
				c0.456,0,0.873-0.119,1.249-0.357c0.377-0.236,0.678-0.602,0.902-1.091c0.225-0.491,0.337-1.105,0.337-1.839
				c0-0.691-0.112-1.284-0.337-1.782c-0.224-0.496-0.528-0.876-0.912-1.14c-0.384-0.262-0.803-0.393-1.259-0.393
				c-0.474,0-0.899,0.135-1.272,0.403c-0.373,0.269-0.663,0.654-0.869,1.158C350.03,769.228,349.928,769.812,349.928,770.477z"/>
			<path style="fill:#DD751F;" d="M365.626,762.85v3.96c0.487-0.506,0.984-0.895,1.491-1.163c0.506-0.269,1.134-0.403,1.881-0.403
				c0.861,0,1.616,0.204,2.266,0.611c0.648,0.41,1.151,1.002,1.51,1.777c0.357,0.775,0.537,1.695,0.537,2.76
				c0,0.785-0.1,1.504-0.299,2.16c-0.2,0.655-0.49,1.224-0.869,1.704c-0.38,0.481-0.841,0.854-1.382,1.117
				c-0.542,0.263-1.139,0.393-1.79,0.393c-0.399,0-0.775-0.047-1.125-0.143c-0.352-0.095-0.651-0.219-0.898-0.375
				c-0.246-0.154-0.457-0.314-0.631-0.48c-0.174-0.164-0.404-0.412-0.689-0.741v0.257c0,0.487-0.117,0.856-0.352,1.107
				c-0.233,0.25-0.531,0.374-0.893,0.374c-0.367,0-0.66-0.124-0.878-0.374c-0.219-0.251-0.328-0.62-0.328-1.107v-11.322
				c0-0.525,0.106-0.923,0.317-1.191c0.212-0.269,0.509-0.403,0.889-0.403c0.399,0,0.706,0.128,0.921,0.384
				C365.518,762.01,365.626,762.375,365.626,762.85z M365.75,770.553c0,1.032,0.236,1.824,0.707,2.378
				c0.472,0.555,1.091,0.833,1.857,0.833c0.652,0,1.214-0.283,1.686-0.851c0.472-0.567,0.707-1.379,0.707-2.436
				c0-0.684-0.097-1.273-0.294-1.767c-0.197-0.494-0.475-0.876-0.835-1.145c-0.361-0.268-0.783-0.403-1.264-0.403
				c-0.494,0-0.935,0.135-1.32,0.403c-0.386,0.269-0.69,0.658-0.912,1.168C365.86,769.243,365.75,769.85,365.75,770.553z"/>
			<path style="fill:#DD751F;" d="M376.672,776.09l0.237-0.58l-3.191-8.035c-0.196-0.461-0.295-0.798-0.295-1.007
				c0-0.222,0.058-0.427,0.171-0.616c0.114-0.191,0.27-0.343,0.47-0.456c0.2-0.115,0.407-0.172,0.623-0.172
				c0.373,0,0.655,0.119,0.846,0.357c0.19,0.237,0.357,0.577,0.503,1.021l2.194,6.383l2.08-5.937
				c0.164-0.479,0.313-0.857,0.446-1.13c0.133-0.273,0.273-0.456,0.422-0.55c0.148-0.096,0.359-0.144,0.632-0.144
				c0.197,0,0.385,0.052,0.565,0.157c0.18,0.104,0.319,0.245,0.417,0.423c0.098,0.177,0.148,0.363,0.148,0.56
				c-0.026,0.12-0.066,0.291-0.124,0.514c-0.058,0.221-0.126,0.447-0.208,0.674l-3.381,8.853c-0.292,0.778-0.577,1.389-0.855,1.832
				c-0.279,0.443-0.647,0.785-1.107,1.021c-0.46,0.238-1.078,0.357-1.857,0.357c-0.759,0-1.33-0.082-1.708-0.246
				c-0.381-0.166-0.57-0.467-0.57-0.903c0-0.297,0.089-0.527,0.271-0.689c0.18-0.161,0.448-0.243,0.801-0.243
				c0.14,0,0.276,0.02,0.409,0.059c0.165,0.037,0.307,0.057,0.427,0.057c0.297,0,0.532-0.044,0.704-0.134
				c0.17-0.088,0.324-0.241,0.46-0.461C376.337,776.836,376.495,776.514,376.672,776.09z"/>
		</g>
		<g>
			<path style="fill:#DD751F;" d="M414.235,765.449h0.618v-0.778c0-0.814,0.1-1.457,0.307-1.938
				c0.204-0.479,0.556-0.826,1.047-1.045c0.49-0.217,1.163-0.326,2.017-0.326c1.52,0,2.273,0.367,2.273,1.114
				c0,0.238-0.079,0.444-0.24,0.615c-0.154,0.169-0.343,0.256-0.558,0.256c-0.1,0-0.278-0.019-0.527-0.06
				c-0.237-0.033-0.452-0.056-0.623-0.056c-0.468,0-0.767,0.141-0.905,0.415c-0.127,0.275-0.195,0.669-0.195,1.185v0.617h0.633
				c0.991,0,1.481,0.297,1.481,0.896c0,0.419-0.127,0.69-0.393,0.805c-0.262,0.114-0.624,0.171-1.089,0.171h-0.633v6.871
				c0,0.511-0.12,0.9-0.369,1.168c-0.241,0.273-0.554,0.406-0.942,0.406c-0.367,0-0.671-0.134-0.918-0.406
				c-0.244-0.268-0.364-0.657-0.364-1.168v-6.871h-0.714c-0.389,0-0.683-0.084-0.893-0.262c-0.209-0.171-0.315-0.399-0.315-0.678
				C412.931,765.756,413.366,765.449,414.235,765.449"/>
			<path style="fill:#DD751F;" d="M422.724,772.023v2.168c0,0.524-0.133,0.919-0.374,1.18c-0.247,0.266-0.559,0.395-0.938,0.395
				c-0.382,0-0.688-0.131-0.927-0.4c-0.236-0.264-0.36-0.656-0.36-1.174v-7.223c0-1.166,0.42-1.749,1.261-1.749
				c0.434,0,0.743,0.135,0.934,0.408c0.19,0.273,0.295,0.674,0.317,1.208c0.308-0.534,0.624-0.935,0.948-1.208
				c0.332-0.273,0.763-0.408,1.31-0.408c0.549,0,1.072,0.135,1.585,0.408c0.516,0.273,0.771,0.637,0.771,1.085
				c0,0.315-0.11,0.58-0.326,0.781c-0.22,0.209-0.454,0.311-0.706,0.311c-0.1,0-0.331-0.063-0.692-0.18
				c-0.365-0.113-0.688-0.173-0.963-0.173c-0.38,0-0.692,0.102-0.932,0.298c-0.242,0.205-0.431,0.497-0.564,0.887
				c-0.129,0.395-0.219,0.865-0.272,1.404C422.747,770.583,422.724,771.245,422.724,772.023"/>
			<path style="fill:#DD751F;" d="M434.645,771.13h-5.074c0.009,0.588,0.124,1.11,0.354,1.559c0.235,0.446,0.54,0.786,0.925,1.017
				c0.385,0.228,0.804,0.34,1.268,0.34c0.311,0,0.593-0.033,0.85-0.111c0.254-0.069,0.505-0.185,0.745-0.341
				c0.242-0.152,0.46-0.318,0.664-0.5c0.202-0.175,0.467-0.416,0.79-0.719c0.135-0.113,0.324-0.174,0.568-0.174
				c0.269,0,0.481,0.074,0.649,0.222c0.166,0.147,0.243,0.351,0.243,0.617c0,0.235-0.089,0.508-0.268,0.819
				c-0.188,0.317-0.463,0.616-0.836,0.906c-0.374,0.285-0.839,0.527-1.398,0.714c-0.559,0.19-1.206,0.286-1.932,0.286
				c-1.671,0-2.964-0.473-3.887-1.422c-0.924-0.952-1.392-2.242-1.392-3.868c0-0.767,0.117-1.479,0.348-2.135
				c0.225-0.658,0.558-1.216,0.999-1.688c0.436-0.471,0.97-0.828,1.612-1.078c0.638-0.249,1.347-0.374,2.128-0.374
				c1.011,0,1.881,0.214,2.606,0.646c0.724,0.423,1.273,0.977,1.629,1.654c0.361,0.681,0.542,1.368,0.542,2.074
				c0,0.648-0.189,1.07-0.562,1.266C435.847,771.034,435.323,771.13,434.645,771.13 M429.571,769.656h4.701
				c-0.063-0.885-0.298-1.55-0.714-1.986c-0.418-0.442-0.959-0.66-1.641-0.66c-0.645,0-1.177,0.22-1.592,0.669
				C429.912,768.125,429.658,768.783,429.571,769.656"/>
			<path style="fill:#DD751F;" d="M445.432,771.13h-5.073c0.006,0.588,0.125,1.11,0.355,1.559c0.231,0.446,0.539,0.786,0.921,1.017
				c0.383,0.228,0.806,0.34,1.271,0.34c0.308,0,0.593-0.033,0.845-0.111c0.259-0.069,0.506-0.185,0.75-0.341
				c0.242-0.152,0.46-0.318,0.664-0.5c0.199-0.175,0.464-0.416,0.788-0.719c0.135-0.113,0.326-0.174,0.568-0.174
				c0.268,0,0.483,0.074,0.65,0.222c0.165,0.147,0.24,0.351,0.24,0.617c0,0.235-0.087,0.508-0.273,0.819
				c-0.177,0.317-0.455,0.616-0.83,0.906c-0.37,0.285-0.84,0.527-1.396,0.714c-0.558,0.19-1.208,0.286-1.935,0.286
				c-1.667,0-2.959-0.473-3.887-1.422c-0.924-0.952-1.389-2.242-1.389-3.868c0-0.767,0.116-1.479,0.348-2.135
				c0.227-0.658,0.559-1.216,0.996-1.688c0.436-0.471,0.973-0.828,1.614-1.078c0.638-0.249,1.351-0.374,2.129-0.374
				c1.009,0,1.878,0.214,2.613,0.646c0.72,0.423,1.266,0.977,1.621,1.654c0.359,0.681,0.545,1.368,0.545,2.074
				c0,0.648-0.191,1.07-0.561,1.266C446.632,771.034,446.108,771.13,445.432,771.13 M440.359,769.656h4.701
				c-0.063-0.885-0.304-1.55-0.715-1.986c-0.421-0.442-0.962-0.66-1.643-0.66c-0.646,0-1.176,0.22-1.593,0.669
				C440.697,768.125,440.443,768.783,440.359,769.656"/>
			<path style="fill:#DD751F;" d="M451.112,766.678v0.311c0.486-0.601,0.994-1.042,1.524-1.324c0.519-0.284,1.118-0.427,1.782-0.427
				c0.795,0,1.535,0.208,2.207,0.617c0.671,0.414,1.198,1.016,1.589,1.807c0.39,0.795,0.586,1.73,0.586,2.814
				c0,0.796-0.112,1.531-0.336,2.201c-0.224,0.668-0.537,1.227-0.929,1.68c-0.394,0.45-0.855,0.802-1.39,1.046
				c-0.542,0.241-1.111,0.363-1.728,0.363c-0.738,0-1.364-0.148-1.865-0.447c-0.503-0.292-0.982-0.733-1.441-1.306v3.893
				c0,1.136-0.416,1.71-1.244,1.71c-0.49,0-0.809-0.147-0.972-0.44c-0.151-0.299-0.233-0.724-0.233-1.291v-11.193
				c0-0.495,0.106-0.859,0.32-1.107c0.215-0.239,0.512-0.364,0.885-0.364c0.369,0,0.666,0.125,0.895,0.374
				C450.999,765.847,451.112,766.204,451.112,766.678 M456.196,770.446c0-0.685-0.107-1.273-0.315-1.763
				c-0.209-0.492-0.499-0.867-0.866-1.128c-0.367-0.263-0.782-0.396-1.232-0.396c-0.714,0-1.318,0.284-1.809,0.844
				c-0.492,0.566-0.739,1.396-0.739,2.493c0,1.026,0.244,1.833,0.735,2.406c0.487,0.573,1.086,0.858,1.813,0.858
				c0.429,0,0.83-0.126,1.197-0.372c0.371-0.253,0.665-0.627,0.884-1.127C456.085,771.759,456.196,771.154,456.196,770.446"/>
			<path style="fill:#DD751F;" d="M461.412,764.012c-0.362,0-0.669-0.114-0.923-0.335c-0.26-0.223-0.388-0.532-0.388-0.937
				c0-0.368,0.131-0.67,0.396-0.91c0.262-0.234,0.566-0.355,0.914-0.355c0.34,0,0.636,0.107,0.894,0.319
				c0.26,0.219,0.391,0.534,0.391,0.946c0,0.4-0.127,0.711-0.378,0.936C462.064,763.898,461.763,764.012,461.412,764.012
				 M462.696,766.691v7.502c0,0.516-0.124,0.908-0.37,1.172c-0.25,0.269-0.561,0.4-0.941,0.4c-0.381,0-0.685-0.134-0.928-0.406
				c-0.233-0.276-0.355-0.665-0.355-1.166v-7.428c0-0.51,0.122-0.895,0.355-1.154c0.243-0.265,0.547-0.392,0.928-0.392
				c0.381,0,0.691,0.127,0.941,0.392C462.572,765.871,462.696,766.233,462.696,766.691"/>
			<path style="fill:#DD751F;" d="M471.055,774.582l-2.284-3.766l-1.408,1.328v2.065c0,0.499-0.133,0.882-0.396,1.149
				c-0.257,0.273-0.566,0.406-0.906,0.406c-0.398,0-0.715-0.131-0.94-0.4c-0.227-0.264-0.344-0.656-0.344-1.174v-11.063
				c0-0.573,0.114-1.011,0.331-1.314c0.223-0.305,0.545-0.452,0.953-0.452c0.4,0,0.713,0.137,0.949,0.411
				c0.234,0.27,0.353,0.674,0.353,1.202v6.293l2.916-3.063c0.362-0.376,0.633-0.641,0.827-0.778
				c0.189-0.139,0.419-0.208,0.689-0.208c0.326,0,0.594,0.104,0.815,0.309c0.211,0.206,0.32,0.466,0.32,0.773
				c0,0.379-0.353,0.889-1.055,1.522l-1.377,1.263l2.659,4.183c0.193,0.314,0.339,0.544,0.424,0.706
				c0.084,0.159,0.13,0.319,0.13,0.462c0,0.413-0.114,0.734-0.341,0.975c-0.225,0.236-0.524,0.354-0.886,0.354
				c-0.316,0-0.564-0.081-0.733-0.256C471.582,775.336,471.345,775.026,471.055,774.582"/>
			<path style="fill:#DD751F;" d="M476.691,775.765c-0.392,0-0.728-0.126-1.014-0.381c-0.284-0.249-0.429-0.605-0.429-1.065
				c0-0.386,0.138-0.719,0.41-0.995c0.274-0.279,0.607-0.419,1.008-0.419c0.397,0,0.735,0.14,1.022,0.412
				c0.279,0.275,0.422,0.612,0.422,1.002c0,0.452-0.143,0.808-0.422,1.06C477.402,775.639,477.07,775.765,476.691,775.765"/>
			<path style="fill:#DD751F;" d="M489.589,772.555c0,0.32-0.097,0.668-0.291,1.034c-0.191,0.37-0.488,0.718-0.886,1.05
				c-0.395,0.332-0.892,0.603-1.495,0.804c-0.601,0.202-1.28,0.307-2.03,0.307c-1.607,0-2.858-0.47-3.758-1.401
				c-0.896-0.936-1.346-2.19-1.346-3.76c0-1.067,0.204-2.006,0.619-2.824c0.407-0.814,1.004-1.447,1.781-1.894
				c0.779-0.448,1.716-0.67,2.794-0.67c0.674,0,1.288,0.098,1.853,0.295c0.561,0.195,1.032,0.451,1.425,0.759
				c0.387,0.315,0.685,0.644,0.89,0.992c0.207,0.352,0.308,0.681,0.308,0.987c0,0.308-0.113,0.571-0.343,0.787
				c-0.235,0.215-0.516,0.324-0.839,0.324c-0.219,0-0.397-0.057-0.541-0.166c-0.144-0.112-0.305-0.29-0.479-0.542
				c-0.317-0.479-0.646-0.842-0.996-1.079c-0.343-0.243-0.78-0.362-1.314-0.362c-0.762,0-1.384,0.298-1.854,0.897
				c-0.468,0.596-0.703,1.42-0.703,2.454c0,0.488,0.063,0.939,0.183,1.348c0.117,0.407,0.291,0.756,0.52,1.044
				c0.23,0.287,0.504,0.505,0.826,0.654c0.324,0.153,0.681,0.226,1.064,0.226c0.521,0,0.967-0.12,1.337-0.36
				c0.376-0.241,0.702-0.607,0.986-1.103c0.158-0.291,0.327-0.518,0.509-0.684c0.183-0.163,0.409-0.249,0.676-0.249
				c0.316,0,0.58,0.123,0.786,0.362C489.483,772.026,489.589,772.285,489.589,772.555"/>
			<path style="fill:#DD751F;" d="M500.78,770.495c0,0.769-0.122,1.484-0.355,2.139c-0.247,0.652-0.592,1.213-1.05,1.679
				c-0.455,0.469-1.002,0.828-1.632,1.08c-0.64,0.247-1.35,0.375-2.139,0.375c-0.785,0-1.493-0.128-2.121-0.383
				c-0.623-0.249-1.171-0.614-1.626-1.082c-0.461-0.477-0.809-1.034-1.052-1.677c-0.23-0.643-0.351-1.354-0.351-2.131
				c0-0.786,0.124-1.506,0.358-2.158c0.242-0.654,0.589-1.212,1.039-1.673c0.451-0.462,0.993-0.817,1.631-1.07
				c0.644-0.249,1.35-0.374,2.121-0.374c0.784,0,1.498,0.125,2.139,0.382c0.638,0.251,1.183,0.614,1.643,1.079
				c0.458,0.475,0.803,1.029,1.04,1.672C500.66,769.003,500.78,769.712,500.78,770.495 M498.176,770.495
				c0-1.059-0.234-1.881-0.698-2.469c-0.463-0.596-1.09-0.888-1.874-0.888c-0.508,0-0.955,0.132-1.343,0.394
				c-0.387,0.262-0.681,0.649-0.89,1.164c-0.209,0.514-0.316,1.113-0.316,1.799c0,0.679,0.103,1.268,0.31,1.773
				c0.208,0.511,0.502,0.897,0.886,1.166c0.386,0.267,0.835,0.404,1.353,0.404c0.784,0,1.411-0.296,1.874-0.892
				C497.942,772.356,498.176,771.536,498.176,770.495"/>
			<path style="fill:#DD751F;" d="M510.671,770.685v3.446c0,0.547-0.12,0.951-0.369,1.227c-0.25,0.273-0.571,0.408-0.977,0.408
				c-0.393,0-0.714-0.136-0.951-0.408c-0.247-0.276-0.372-0.681-0.372-1.227V770c0-0.653-0.021-1.162-0.063-1.524
				c-0.046-0.354-0.168-0.655-0.362-0.883c-0.196-0.235-0.509-0.352-0.931-0.352c-0.851,0-1.407,0.29-1.677,0.881
				c-0.268,0.576-0.406,1.413-0.406,2.507v3.502c0,0.538-0.122,0.946-0.361,1.224c-0.249,0.273-0.567,0.412-0.965,0.412
				c-0.395,0-0.717-0.139-0.967-0.412c-0.252-0.277-0.376-0.685-0.376-1.224v-7.419c0-0.489,0.111-0.86,0.335-1.111
				c0.229-0.257,0.526-0.382,0.89-0.382c0.356,0,0.651,0.123,0.892,0.355c0.236,0.238,0.354,0.566,0.354,0.984v0.245
				c0.453-0.535,0.935-0.932,1.444-1.181c0.517-0.26,1.082-0.386,1.713-0.386c0.651,0,1.211,0.131,1.678,0.39
				c0.47,0.261,0.853,0.655,1.16,1.177c0.439-0.528,0.909-0.923,1.41-1.181c0.5-0.257,1.053-0.386,1.662-0.386
				c0.706,0,1.321,0.143,1.834,0.419c0.51,0.278,0.893,0.68,1.148,1.195c0.221,0.473,0.33,1.21,0.33,2.217v5.063
				c0,0.547-0.122,0.951-0.367,1.227c-0.246,0.273-0.575,0.408-0.979,0.408c-0.395,0-0.714-0.139-0.965-0.412
				c-0.25-0.277-0.376-0.685-0.376-1.224v-4.361c0-0.559-0.023-1.003-0.069-1.338c-0.047-0.337-0.177-0.62-0.383-0.847
				c-0.212-0.228-0.53-0.344-0.953-0.344c-0.342,0-0.666,0.107-0.974,0.308c-0.307,0.198-0.547,0.477-0.721,0.813
				C510.77,768.8,510.671,769.575,510.671,770.685"/>
		</g>
		<g>
			<path style="fill:#DD751F;" d="M389.967,769.867c-0.002-0.005-0.002-0.01-0.002-0.018
				C389.965,769.857,389.965,769.862,389.967,769.867z"/>
			<path style="fill:#DD751F;" d="M390.098,770.696c0.002,0,0.002,0,0.003,0c-0.05-0.236-0.088-0.471-0.119-0.702
				C390.012,770.227,390.051,770.462,390.098,770.696z"/>
			<path style="fill:#DD751F;" d="M390.956,773.102c-0.006-0.01-0.011-0.022-0.017-0.033
				C390.945,773.081,390.95,773.092,390.956,773.102z"/>
			<path style="fill:#DD751F;" d="M390.874,772.942c-0.022-0.044-0.044-0.09-0.065-0.134
				C390.83,772.855,390.852,772.898,390.874,772.942z"/>
			<path style="fill:#DD751F;" d="M390.339,771.623c0.127,0.4,0.28,0.788,0.457,1.158c-0.18-0.378-0.33-0.767-0.454-1.158
				C390.341,771.623,390.34,771.623,390.339,771.623z"/>
			<path style="fill:#DD751F;" d="M400.004,759.93c0.501,0,0.871,0.04,1.295,0.111l0.12-0.763c0,0-1.171-0.36-2.71-0.234
				l-0.121-0.415c0.479-0.101,0.838-0.526,0.838-1.034c0-0.582-0.474-1.054-1.057-1.054c-0.583,0-1.056,0.472-1.056,1.054
				c0,0.508,0.358,0.934,0.836,1.034l0.134,0.463c-1.634,0.225-2.935,0.862-2.935,0.862l0.23,0.705
				c0.989-0.329,1.846-0.529,2.624-0.613C398.964,759.965,399.537,759.93,400.004,759.93z"/>
			<path style="fill:#DD751F;" d="M390.936,763.789l0.006-0.008c0.039-0.05,0.076-0.097,0.113-0.143l-0.313-0.226l-0.488-0.356
				c-0.027,0.038-0.795,0.744-1.401,2.048c-0.025-0.041-0.056-0.081-0.09-0.119c-0.182-0.198-0.436-0.3-0.758-0.294
				c-0.004,0-0.009,0-0.015,0c-0.2,0-0.337-0.066-0.427-0.147c0.089-0.113,0.143-0.256,0.143-0.413c0-0.368-0.3-0.669-0.669-0.669
				c-0.369,0-0.668,0.301-0.668,0.669c0,0.37,0.3,0.669,0.668,0.669c0.058,0,0.113-0.01,0.167-0.021
				c0.165,0.183,0.425,0.342,0.808,0.334c0.197-0.002,0.341,0.049,0.438,0.155c0.111,0.121,0.148,0.296,0.16,0.428
				c-0.001,0.002-0.001,0.005-0.003,0.005c-0.435,1.19-0.311,2.67-0.311,2.67l1.057,0.042c0.021-0.539,0.099-1.482,0.372-2.23
				C390.25,764.733,390.91,763.827,390.936,763.789z"/>
			<path style="fill:#DD751F;" d="M409.204,760.814c-0.368,0-0.669,0.299-0.669,0.669c0,0.058,0.009,0.112,0.023,0.165
				c-0.184,0.166-0.343,0.428-0.337,0.81c0.003,0.197-0.048,0.34-0.154,0.436c-0.085,0.075-0.191,0.115-0.296,0.141
				c-0.787-1.103-1.756-1.775-1.756-1.775l-0.759,0.813c0.573,0.521,1.159,1.175,1.729,1.99c0.394,0.564,0.799,1.29,1.136,2.015
				l1.024-0.486c0,0-0.468-1.155-1.126-2.191c0.114-0.04,0.23-0.102,0.331-0.192c0.2-0.181,0.299-0.437,0.293-0.758
				c-0.002-0.208,0.066-0.349,0.148-0.441c0.114,0.087,0.257,0.143,0.412,0.143c0.371,0,0.67-0.3,0.67-0.669
				C409.874,761.113,409.575,760.814,409.204,760.814z"/>
			<path style="fill:#DD751F;" d="M406.546,770.016c-1.409,0.687-3.728,1.594-6.781,2.02c-1.198,0.166-2.359,0.227-3.428,0.227
				c-1.391,0-2.62-0.104-3.563-0.223c-1.076-0.136-1.917-0.302-2.432-0.418c0.124,0.392,0.273,0.78,0.454,1.158
				c0.003,0.01,0.008,0.021,0.013,0.027c0.022,0.044,0.043,0.09,0.065,0.134c0.022,0.044,0.043,0.087,0.065,0.127
				c0.006,0.012,0.011,0.023,0.017,0.033c0.303,0.57,0.667,1.095,1.081,1.549c1.44,1.575,2.907,1.824,2.921,1.826l0.023,0.003
				l0.021,0.008c0.013,0.005,1.314,0.425,3.292,0.425c1.945,0,3.854-0.393,5.674-1.167c1.348-0.689,2.622-1.736,3.254-2.67
				c0.488-0.723,0.841-1.493,1.05-2.294c0.111-0.426,0.199-1.107,0.147-1.825C408.022,769.223,407.395,769.603,406.546,770.016z"/>
			<path style="fill:#DD751F;" d="M391.389,764.123c-0.041,0.06-0.652,0.925-1.135,2.253c-0.362,0.995-0.346,2.443-0.346,2.46v0.003
				c0,0.34,0.019,0.677,0.057,1.011c0,0.008,0,0.013,0.002,0.018c0.004,0.043,0.011,0.084,0.015,0.127
				c0.03,0.231,0.069,0.466,0.119,0.702c0.7,0.178,4.878,1.152,9.548,0.502c2.927-0.407,5.149-1.273,6.499-1.927
				c1.121-0.544,1.842-1.036,2.12-1.238c-0.277-1.028-1.042-2.641-1.743-3.646c-2.005-2.865-4.167-3.601-5.277-3.783
				c-0.424-0.069-0.763-0.109-1.243-0.109c-0.447,0-1.002,0.036-1.743,0.114c-0.743,0.077-1.572,0.272-2.532,0.596
				c-1.348,0.451-2.567,1.159-3.527,2.048l-0.033,0.03C392.027,763.413,391.73,763.688,391.389,764.123z M403.659,763.456
				c0.961,0,1.743,0.781,1.743,1.743c0,0.962-0.782,1.744-1.743,1.744c-0.962,0-1.742-0.782-1.742-1.744
				C401.917,764.237,402.697,763.456,403.659,763.456z M395.417,763.386c1.557,0,2.817,1.262,2.817,2.817
				c0,1.556-1.26,2.814-2.817,2.814c-1.555,0-2.816-1.259-2.816-2.814C392.601,764.648,393.862,763.386,395.417,763.386z"/>
		</g>
	</g>
</g>
<g id="OBJECTS">
	<path style="opacity:0.9;fill:#E27C37;" d="M213.582,133.106c0,0-93.331,229.385-113.456,394.309
		c-1.788,10.466-4.394,25.856-0.816,36.01c7.724,21.886,41.291,25.13,60.271,30.671c89.249,26.064,175.792,56.31,268.615,68.151
		c58.707,7.492,122.538,21.5,148.952-44.937c36.828-92.978,67.853-187.903,91.729-285.013c7.2-29.281,20.065-78.918,9.674-108.001
		c-8.801-24.631-52.065-31.869-74.198-39.309c-29.414-9.886-58.871-19.666-88.414-29.192
		c-66.038-21.292-133.797-41.458-202.333-52.87C273.976,96.327,232.777,89.215,213.582,133.106z"/>
	<g>
		<path style="fill:#F7A76F;" d="M382.319,81.173c0,0-204.784,139.253-312.911,265.401c-7.287,7.722-17.984,19.093-20.631,29.527
			c-5.694,22.499,20.453,43.795,33.183,58.925C141.82,506.17,197.11,579.296,267.822,640.583
			c44.723,38.761,90.1,85.788,148.901,45.114c82.169-57,160.588-118.838,234.27-186.453c22.217-20.388,60.425-54.582,67.888-84.55
			c6.32-25.381-25.688-55.378-39.991-73.833c-19.008-24.526-38.112-48.987-57.429-73.287
			c-43.18-54.312-88.418-108.641-139.149-156.111C452.973,84.013,422.617,55.268,382.319,81.173z"/>
		<g>
			<g>
				<g>
					<path style="fill:#E68F54;" d="M167.705,281.04c0.324,0.354-0.982,2.15-3.691,4.98c-2.704,2.837-6.792,6.723-11.917,11.416
						c-10.236,9.399-24.671,21.992-40.182,36.253c-7.743,7.141-15.012,14.04-21.372,20.517c-6.36,6.471-11.836,12.517-15.876,17.908
						c-2.027,2.689-3.671,5.222-4.838,7.521c-0.606,1.147-1.027,2.237-1.379,3.247c-0.282,1.003-0.527,1.943-0.535,2.754
						c-0.114,1.647,0.362,2.862,0.842,3.667c0.191,0.443,0.455,0.71,0.56,0.975c0.122,0.25,0.158,0.433,0.089,0.531
						c-0.068,0.098-0.239,0.111-0.524,0.029c-0.27-0.099-0.717-0.213-1.154-0.587c-0.22-0.182-0.503-0.366-0.742-0.636
						c-0.228-0.278-0.504-0.582-0.743-0.949c-0.441-0.75-0.868-1.715-1.023-2.831c-0.223-1.127-0.148-2.349-0.002-3.662
						c0.21-1.283,0.529-2.661,1.033-4.04c0.973-2.788,2.468-5.729,4.355-8.772c3.767-6.103,9.045-12.682,15.291-19.545
						c6.247-6.869,13.49-14.009,21.315-21.227c15.675-14.412,30.68-26.466,41.735-34.915c5.535-4.218,10.093-7.524,13.318-9.714
						C165.497,281.775,167.381,280.686,167.705,281.04z"/>
				</g>
			</g>
		</g>
		<g>
			<g>
				<g>
					<path style="fill:#E68F54;" d="M131.667,466.165c-0.71,0.648-4.504-2.427-10.094-7.956c-1.397-1.382-2.906-2.917-4.506-4.584
						c-1.546-1.695-3.177-3.522-4.874-5.462c-3.399-3.866-7.042-8.235-10.822-12.778c-3.777-4.552-7.301-8.95-10.442-13.01
						c-1.541-2.059-3.133-3.886-4.535-5.685c-1.418-1.781-2.721-3.459-3.891-5.011c-4.679-6.204-7.239-10.389-6.537-11.046
						c0.697-0.653,4.536,2.358,10.201,7.784c1.416,1.355,2.946,2.862,4.569,4.499c1.603,1.651,3.385,3.37,5.066,5.323
						c3.43,3.857,7.129,8.162,10.932,12.745c3.812,4.582,7.264,9.024,10.394,13.114c1.558,2.046,3.02,4.006,4.37,5.856
						c1.387,1.801,2.661,3.497,3.805,5.065C129.874,461.293,132.372,465.521,131.667,466.165z"/>
				</g>
			</g>
		</g>
		<g>
			<g>
				<g>
					<path style="fill:#E68F54;" d="M665.746,457.977c-0.332-0.352,1.548-2.735,5.19-6.766c3.608-4.049,9.112-9.672,15.247-16.966
						c3.008-3.668,6.212-7.778,8.685-12.511c1.221-2.362,2.275-4.872,2.845-7.505c0.567-2.629,0.73-5.362,0.283-8.12
						c-0.45-2.758-1.431-5.536-2.843-8.256c-0.356-0.679-0.758-1.349-1.134-2.03c-0.454-0.697-0.91-1.398-1.369-2.103
						c-0.918-1.41-1.846-2.834-2.781-4.271c-0.932-1.438-1.872-2.889-2.82-4.351c-0.962-1.456-2.043-2.874-3.068-4.331
						c-2.076-2.905-4.182-5.852-6.312-8.833c-2.212-2.937-4.398-5.839-6.552-8.7c-2.171-2.851-4.235-5.71-6.401-8.43
						c-4.293-5.464-8.33-10.812-12.315-15.811c-7.916-10.048-15.046-19.099-21.034-26.7c-11.986-15.214-19.158-24.858-18.418-25.493
						c0.715-0.612,9.203,7.902,22.176,22.339c3.226,3.625,6.729,7.623,10.474,11.928c3.745,4.305,7.645,8.996,11.775,13.909
						c4.136,4.907,8.31,10.209,12.7,15.646c2.211,2.705,4.33,5.576,6.538,8.437c2.188,2.879,4.43,5.779,6.644,8.764
						c2.155,3.038,4.285,6.04,6.385,8.998c1.036,1.492,2.111,2.928,3.089,4.438c0.963,1.522,1.918,3.033,2.865,4.53
						c0.943,1.499,1.878,2.984,2.805,4.455c0.461,0.738,0.92,1.472,1.377,2.203c0.432,0.808,0.881,1.595,1.285,2.41
						c1.612,3.26,2.786,6.77,3.263,10.357c0.483,3.588,0.154,7.195-0.687,10.461c-0.84,3.282-2.223,6.203-3.73,8.832
						c-3.061,5.256-6.688,9.379-10.053,12.991c-3.402,3.583-6.638,6.607-9.52,9.202c-2.886,2.591-5.426,4.748-7.538,6.467
						C668.573,456.607,666.072,458.323,665.746,457.977z"/>
				</g>
			</g>
		</g>
		<g>
			<g>
				<g>
					<path style="fill:#E68F54;" d="M164.427,305.614c0.358,0.301-0.145,1.583-1.503,3.586c-1.383,1.956-3.619,4.602-6.598,7.558
						c-5.924,5.985-14.676,13.436-24.373,21.505c-9.725,8.043-18.514,15.279-24.977,20.45c-1.609,1.299-3.086,2.455-4.408,3.446
						c-1.313,1.001-2.451,1.858-3.426,2.516c-1.943,1.321-3.183,1.895-3.523,1.556c-0.338-0.338,0.258-1.559,1.633-3.485
						c0.69-0.96,1.563-2.109,2.633-3.389c1.079-1.269,2.336-2.688,3.749-4.234c5.677-6.155,14.094-14.095,23.885-22.193
						c9.769-8.128,18.983-14.957,25.594-19.879c3.339-2.439,5.973-4.435,7.89-5.75C162.874,305.963,164.053,305.298,164.427,305.614
						z"/>
				</g>
			</g>
		</g>
		<g>
			<g>
				<g>
					<path style="fill:#E68F54;" d="M659.191,366.23c-0.39,0.282-1.932-1.027-4.38-3.625c-2.46-2.591-5.758-6.511-9.915-11.313
						c-8.172-9.689-19.418-23.136-31.393-38.358c-12.023-15.185-22.386-29.401-29.467-39.985c-1.803-2.62-3.304-5.093-4.636-7.248
						c-1.322-2.163-2.429-4.046-3.295-5.612c-1.731-3.131-2.5-4.988-2.104-5.263c0.392-0.273,1.908,1.063,4.31,3.702
						c1.2,1.32,2.622,2.966,4.235,4.901c1.624,1.929,3.388,4.18,5.435,6.603c8.054,9.789,18.962,23.442,30.97,38.609
						c11.961,15.204,22.615,29.152,29.836,39.663c3.67,5.197,6.4,9.605,8.199,12.698
						C658.776,364.107,659.579,365.951,659.191,366.23z"/>
				</g>
			</g>
		</g>
		<g>
			<g>
				<g>
					<path style="fill:#E68F54;" d="M482.257,136.871c-0.283,0.374-2.495-0.71-6.112-3.197c-3.621-2.477-8.601-6.387-14.561-11.367
						c-5.978-4.954-12.923-11.032-20.861-17.294c-3.971-3.121-8.208-6.277-12.753-9.098c-2.277-1.385-4.635-2.684-7.051-3.712
						c-2.407-1.025-4.901-1.767-7.198-1.879c-0.284-0.006-0.555,0.019-0.832,0.021c-0.275,0.007-0.533-0.006-0.892,0.061
						c-0.668,0.093-1.335,0.186-1.999,0.278c-1.339,0.12-2.622,0.526-3.92,0.791c-0.652,0.121-1.281,0.344-1.912,0.546
						c-0.633,0.201-1.262,0.401-1.889,0.601c-1.244,0.44-2.455,0.982-3.673,1.455c-4.814,2.124-9.273,4.872-13.469,7.631
						c-4.198,2.764-8.13,5.578-11.822,8.225c-3.71,2.645-7.166,5.109-10.32,7.359c-12.697,8.977-21.098,13.789-21.631,13.025
						c-0.566-0.807,6.767-6.988,18.651-16.922c2.984-2.471,6.25-5.184,9.824-8.046c3.567-2.865,7.431-5.897,11.693-8.919
						c4.261-3.011,8.917-6.068,14.276-8.546c1.369-0.566,2.725-1.188,4.145-1.711c0.721-0.239,1.445-0.48,2.172-0.722
						c0.728-0.24,1.452-0.497,2.216-0.654c1.517-0.334,3.018-0.795,4.594-0.958c0.782-0.11,1.566-0.22,2.353-0.33
						c0.366-0.069,0.847-0.079,1.307-0.093c0.46-0.01,0.928-0.036,1.382-0.023c3.626,0.183,6.794,1.236,9.665,2.469
						c2.873,1.253,5.478,2.742,7.938,4.295c4.885,3.146,9.203,6.549,13.181,9.899c7.939,6.718,14.56,13.195,20.116,18.612
						c5.534,5.439,9.958,9.856,13.006,12.935C480.918,134.688,482.553,136.481,482.257,136.871z"/>
				</g>
			</g>
		</g>
		<g>
			<g>
				<g>
					<path style="fill:#E68F54;" d="M454.406,133.594c-0.531,0.801-3.29-0.146-7.381-2.37c-1.023-0.555-2.126-1.19-3.297-1.895
						c-1.145-0.724-2.318-1.54-3.557-2.407c-2.469-1.739-5.125-3.729-7.849-5.895c-10.757-8.789-18.422-17.05-17.234-18.56
						c1.184-1.504,10.916,4.44,21.599,13.168c2.694,2.143,5.2,4.26,7.428,6.256c1.115,0.994,2.155,1.977,3.125,2.881
						c0.982,0.874,1.882,1.71,2.691,2.498C453.16,130.421,454.933,132.798,454.406,133.594z"/>
				</g>
			</g>
		</g>
		<g>
			<g>
				<g>
					<path style="fill:#E68F54;" d="M406.894,674.226c0.393,0.847-2.795,3.387-8.525,6.55c-1.442,0.775-3.057,1.575-4.801,2.415
						c-0.897,0.383-1.825,0.779-2.78,1.188c-0.481,0.199-0.969,0.401-1.463,0.607c-0.511,0.179-1.028,0.359-1.552,0.543
						c-1.059,0.346-2.111,0.767-3.257,1.058c-1.146,0.292-2.316,0.589-3.507,0.892c-1.232,0.197-2.485,0.398-3.757,0.602
						c-1.288,0.135-2.62,0.173-3.955,0.247c-5.403,0.085-10.529-1.236-14.678-3.082c-0.523-0.228-1.04-0.453-1.549-0.675
						c-0.509-0.222-0.965-0.513-1.438-0.763c-0.927-0.523-1.828-1.032-2.698-1.524c-1.647-1.099-3.162-2.143-4.481-3.158
						c-1.28-1.063-2.414-2.045-3.384-2.932c-0.955-0.903-1.701-1.763-2.305-2.473c-1.194-1.435-1.7-2.396-1.399-2.771
						c0.299-0.373,1.373-0.127,3.036,0.622c0.837,0.366,1.8,0.896,2.929,1.469c1.139,0.554,2.407,1.211,3.781,1.962
						c1.392,0.678,2.917,1.421,4.553,2.218c0.825,0.344,1.678,0.698,2.557,1.064c0.439,0.175,0.871,0.399,1.329,0.546
						c0.456,0.15,0.918,0.304,1.387,0.458c3.723,1.291,7.864,2.166,12.292,2.103c1.111-0.073,2.206-0.083,3.293-0.173
						c1.091-0.142,2.166-0.281,3.223-0.418c1.063-0.215,2.107-0.426,3.129-0.633c1.027-0.19,2.029-0.516,3.015-0.748
						c0.493-0.124,0.98-0.246,1.461-0.367c0.48-0.146,0.954-0.289,1.42-0.431c0.939-0.274,1.851-0.542,2.733-0.8
						c1.761-0.58,3.418-1.09,4.94-1.559C402.523,674.318,406.481,673.334,406.894,674.226z"/>
				</g>
			</g>
		</g>
	</g>
	<g>
		<path style="fill:#FFF6BD;" d="M616.505,554.545c-0.032,0.02-0.077,0.043-0.108,0.064
			c-92.928,61.079-345.039,29.425-345.039,29.425c-77.549-131.068-53.52-389.929-53.52-389.929
			c146.251-29.894,300.857-19.092,307.771-18.59c0.163,0.012,0.24,0.022,0.24,0.022c0,0.011,0,0.011,0,0.022
			c1.082,158.189,88.023,372.539,90.602,378.843C616.484,554.501,616.505,554.545,616.505,554.545z"/>
		<path style="fill:#F4E9AE;" d="M616.397,554.61c-1.464,5.949-3.135,11.866-5.154,17.654c-2.87,8.234-4.781,17.51-9.664,24.787
			c-1.946,2.898-5.755,6.287-9.102,7.736c-138.715,60.073-360.439,16.384-360.439,16.384
			c-61.166-122.331-28.398-434.351-28.398-434.351s50.614-6.259,52.789-6.554c61.536-8.191,161.772-17.804,258.652-6.968
			c0.22,0.022,0.448,0.044,0.667,0.077c3.594,0.688,7.908,1.802,9.863,2.14c-6.914-0.502-161.521-11.304-307.771,18.59
			c0,0-24.029,258.861,53.52,389.929C271.358,584.035,523.469,615.689,616.397,554.61z"/>
		<path style="opacity:0.4;fill:#F4E9AE;" d="M271.358,584.035c-0.103-0.173-0.201-0.349-0.303-0.522
			c-2.561,3.965-5.242,7.847-8.115,11.589c-8.079,10.523-17.91,20.94-30.344,26.179c12.228,2.338,225.186,41.841,359.881-16.492
			c3.347-1.449,7.155-4.838,9.102-7.736c4.883-7.277,6.794-16.553,9.664-24.787c2.02-5.788,3.69-11.705,5.154-17.654
			C523.469,615.689,271.358,584.035,271.358,584.035z"/>
		<path style="fill:none;stroke:#262424;stroke-width:1.0922;stroke-miterlimit:10;" d="M515.747,173.375
			c-0.163-0.033-0.316-0.055-0.48-0.088"/>
		<path style="fill:none;stroke:#262424;stroke-width:1.0922;stroke-miterlimit:10;" d="M525.61,175.516
			c0.087,0.022,0.163,0.033,0.24,0.044c0.099,0.022,0.185,0.033,0.273,0.044"/>
		<path style="fill:#D3637E;" d="M597.575,601.511c0,0-0.639,0.909-2.55,2.002c-1.59,0.909-2.548,1.274-2.548,1.274
			c-138.715,60.073-360.439,16.384-360.439,16.384c-61.166-122.331-28.398-434.351-28.398-434.351s50.614-6.259,52.789-6.554
			c61.536-8.191,161.772-17.804,258.652-6.968c0.22,0.022,0.448,0.044,0.667,0.077c0.306,0.032,0.601,0.076,0.907,0.109
			c-6.074-20.119-25.756-18.7-25.756-18.7c-43.919-0.721-149.112,1.366-252.056,13.817c-0.055,0-0.109,0.011-0.164,0.011
			c-3.43,0.295-29.676,3.451-31.784,4.226c-21.026,7.668-20.731,13.621-24.008,51.849c0,0-18.568,222.817,15.292,366.993
			c0,0,2.548,48.058,49.879,54.611c0,0,172.937,21.845,294.175-6.554C542.233,639.739,601.214,630.273,597.575,601.511z"/>
		<g>
			<path style="opacity:0.6;fill:#C9BC85;" d="M254.353,198.335c-4.975-2.31-12.006,1.781-11.12,7.783
				c0.795,5.37,6.45,6.996,10.91,4.974c4.614-2.092,5.499-8.88,1.496-11.976C255.231,198.802,254.8,198.543,254.353,198.335z"/>
			<g>
				<path style="fill:#777671;" d="M229.034,170.913c-0.001-0.003-0.002-0.006-0.004-0.009
					C229.031,170.914,229.034,170.925,229.034,170.913z"/>
				<path style="fill:#777671;" d="M229.034,170.896c-0.002,0-0.005,0.001-0.007,0.001c0.001,0.002,0.002,0.004,0.002,0.007
					C229.029,170.895,229.029,170.886,229.034,170.896z"/>
				<path style="fill:#777671;" d="M257.629,182.616c-0.229-5.286-1.169-9.655-1.835-12.998
					c-3.091-15.466-13.653-18.928-13.653-18.928c-19.136-3.485-20.51,12.712-20.172,19.898c1.594-0.186,4.944-0.644,6.747-0.83
					c-1.274-3.869-0.375-10.53,4.142-12.788c5.461-2.73,10.278,1.136,13.096,5.505c1.277,1.977,2.282,4.249,3.058,6.673
					c1.441,4.489,2.119,9.546,2.25,14.407c0.054,1.999,0.01,3.965-0.11,5.855c-0.087,1.43-0.229,2.817-0.404,4.128
					c-0.404,3.025-1.027,3.342-1.78,6.302c-0.623,2.425-2.141,4.544,0.251,6.488c1.901,1.551,3.921,0.895,4.828-1.519
					c2.261-6.061,3.255-11.556,3.55-16.448C257.716,186.34,257.727,184.429,257.629,182.616z"/>
			</g>
		</g>
		<g>
			<path style="opacity:0.6;fill:#C9BC85;" d="M300.25,191.778c-4.975-2.309-12.006,1.781-11.12,7.783
				c0.794,5.369,6.45,6.996,10.91,4.974c4.613-2.091,5.499-8.881,1.495-11.975C301.128,192.246,300.697,191.986,300.25,191.778z"/>
			<g>
				<path style="fill:#777671;" d="M274.93,164.34c-0.001,0-0.002,0.001-0.004,0.001C274.93,164.389,274.952,164.573,274.93,164.34z
					"/>
				<path style="fill:#777671;" d="M303.525,176.06c-0.229-5.287-1.169-9.655-1.835-12.998
					c-3.091-15.467-13.653-18.929-13.653-18.929c-19.136-3.484-20.243,13.995-19.904,21.182c1.594-0.186,5.007-0.48,6.809-0.665
					c0-0.004-1.536-10.775,3.811-14.236c5.126-3.318,10.278,1.135,13.096,5.504c1.278,1.976,2.282,4.248,3.058,6.674
					c1.441,4.489,2.119,9.546,2.251,14.406c0.054,1.999,0.01,3.965-0.11,5.855c-0.087,1.431-0.229,2.818-0.404,4.128
					c-0.404,3.025-1.026,3.343-1.78,6.302c-0.622,2.425-2.141,4.544,0.251,6.488c1.901,1.55,3.921,0.895,4.828-1.518
					c2.262-6.063,3.255-11.556,3.55-16.449C303.612,179.784,303.624,177.872,303.525,176.06z"/>
			</g>
		</g>
		<g>
			<path style="opacity:0.6;fill:#C9BC85;" d="M341.754,187.956c-4.975-2.31-12.006,1.781-11.12,7.783
				c0.794,5.369,6.45,6.996,10.91,4.974c4.613-2.091,5.499-8.88,1.496-11.975C342.633,188.423,342.202,188.164,341.754,187.956z"/>
			<path style="fill:#777671;" d="M344.997,177.982c-0.295,4.893-1.288,10.387-3.55,16.449c-0.906,2.413-2.926,3.069-4.827,1.518
				c-2.392-1.943-0.874-4.063-0.251-6.488c0.753-2.96,1.376-3.277,1.78-6.302c0.175-1.311,0.316-2.698,0.404-4.129
				c0.12-1.889,0.164-3.855,0.109-5.854c-0.131-4.86-0.809-9.917-2.25-14.406c-0.775-2.425-1.78-4.697-3.058-6.674
				c-2.818-4.369-7.635-8.235-13.096-5.504c-4.522,2.26-3.839,14.402-3.829,14.423c-1.802,0.186-5.231,0.377-6.827,0.563
				c-0.337-7.187,0.803-24.751,19.939-21.267c0,0,10.562,3.462,13.653,18.929c0.666,3.343,1.605,7.711,1.835,12.997
				C345.128,174.05,345.118,175.961,344.997,177.982z"/>
		</g>
		<g>
			<path style="opacity:0.6;fill:#C9BC85;" d="M386.109,186.13c-4.914-2.437-12.049,1.471-11.318,7.494
				c0.656,5.387,6.268,7.16,10.778,5.254c4.667-1.972,5.727-8.736,1.805-11.933C386.974,186.62,386.55,186.35,386.109,186.13z"/>
			<path style="fill:#777671;" d="M389.607,176.243c-0.421,4.884-1.556,10.35-3.973,16.352c-0.969,2.39-3.005,2.993-4.865,1.393
				c-2.341-2.005-0.769-4.083-0.084-6.492c0.83-2.939,1.461-3.239,1.942-6.254c0.209-1.306,0.386-2.689,0.511-4.117
				c0.168-1.885,0.263-3.849,0.26-5.85c-0.005-4.862-0.552-9.935-1.877-14.459c-0.713-2.443-1.658-4.741-2.885-6.75
				c-2.705-4.44-7.419-8.43-12.95-5.841c-4.579,2.144-4.191,13.801-4.181,13.823c-1.806,0.139-5.158,0.288-6.865,0.391
				c-0.152-7.194,1.45-24.229,20.489-20.253c0,0,10.469,3.735,13.16,19.276c0.58,3.358,1.406,7.75,1.5,13.04
				C389.84,172.316,389.779,174.227,389.607,176.243z"/>
		</g>
		<g>
			<path style="opacity:0.6;fill:#C9BC85;" d="M429.795,183.97c-4.912-2.447-12.057,1.448-11.337,7.473
				c0.646,5.388,6.256,7.171,10.774,5.274c4.671-1.962,5.743-8.724,1.824-11.929C430.662,184.461,430.237,184.191,429.795,183.97z"
				/>
			<path style="fill:#777671;" d="M433.314,174.09c-0.43,4.884-1.575,10.347-4.005,16.345c-0.973,2.387-3.013,2.986-4.872,1.383
				c-2.337-2.01-0.76-4.085-0.071-6.492c0.838-2.938,1.468-3.237,1.956-6.25c0.211-1.306,0.392-2.689,0.518-4.117
				c0.172-1.884,0.271-3.849,0.271-5.849c0.004-4.862-0.533-9.936-1.85-14.463c-0.709-2.445-1.65-4.744-2.873-6.756
				c-2.698-4.445-7.408-8.443-12.944-5.865c-4.583,2.134-4.211,13.966-4.2,13.988c-1.808,0.135-5.227,0.131-6.827,0.273
				c-0.14-7.194,1.448-24.296,20.485-20.283c0,0,10.467,3.753,13.13,19.299c0.575,3.36,1.393,7.754,1.474,13.044
				C433.554,170.163,433.49,172.074,433.314,174.09z"/>
		</g>
		<path style="opacity:0.9;fill:#F4E9AE;" d="M266.99,281.485c0,0-8.374-2.73-20.753,2.367c0,0-1.092,12.197,3.276,20.935
			c0,0,12.379,1.457,18.933-2.913C268.446,301.874,271.358,295.32,266.99,281.485z"/>
		<g>
			<path style="opacity:0.6;fill:#C9BC85;" d="M472.218,184.613c-4.729-2.785-12.129,0.601-11.832,6.66
				c0.267,5.42,5.738,7.592,10.379,6.015c4.796-1.631,6.339-8.301,2.654-11.773C473.047,185.163,472.642,184.863,472.218,184.613z"
				/>
			<path style="fill:#777671;" d="M476.418,175.002c-0.771,4.842-2.296,10.212-5.138,16.025c-1.14,2.313-3.215,2.768-4.957,1.04
				c-2.191-2.168-0.472-4.129,0.383-6.482c1.041-2.872,1.691-3.126,2.389-6.099c0.302-1.288,0.579-2.654,0.806-4.07
				c0.302-1.868,0.538-3.821,0.678-5.815c0.344-4.851,0.163-9.949-0.834-14.558c-0.535-2.488-1.314-4.847-2.392-6.939
				c-2.381-4.623-6.799-8.942-12.505-6.758c-4.719,1.81-5.172,13.465-5.162,13.487c-1.812,0.009-5.257,0.109-6.86,0.139
				c0.362-7.186,3.171-24.306,21.88-18.971c0,0,10.178,4.477,11.748,20.171c0.339,3.392,0.847,7.832,0.559,13.115
				C476.931,171.102,476.736,173.003,476.418,175.002z"/>
		</g>
		<path style="fill:#454343;" d="M273.906,259.273c0.476,0.968-2.298,2.881-5.035,6.892c-1.386,1.996-2.686,4.587-3.828,7.657
			c-1.145,3.079-2.089,6.641-3.023,10.573c-0.474,1.957-0.951,3.926-1.5,5.866c-0.315,0.995-0.561,1.933-0.967,2.934
			c-0.193,0.485-0.366,0.994-0.579,1.439l-0.309,0.677c-0.154,0.308-0.306,0.614-0.458,0.919l-0.235,0.469l-0.315,0.53
			c-0.221,0.34-0.397,0.73-0.649,1.017c-0.466,0.626-0.955,1.183-1.508,1.572c-0.543,0.401-1.126,0.677-1.754,0.829
			c-0.633,0.149-1.32,0.129-1.902-0.044c-1.169-0.329-2.163-1.13-2.993-2.132c-0.41-0.505-0.789-1.014-1.137-1.522
			c-0.104-0.145-0.153-0.222-0.194-0.291l-0.139-0.226l-0.266-0.435c-1.338-2.262-2.411-3.827-3.287-4.958
			c-0.859-1.111-1.431-1.821-1.229-2.276c0.181-0.419,1.191-0.539,2.8,0.079c1.592,0.597,3.653,2.113,5.577,4.128l0.362,0.369
			l0.18,0.184c0.066,0.069,0.125,0.129,0.13,0.122c0.085,0.048,0.165,0.088,0.238,0.122c0.148,0.065,0.276,0.105,0.402,0.084
			c0.135-0.008,0.241-0.186,0.268-0.322c0.018-0.069,0.026-0.134,0.029-0.19l0.001-0.08c0.001-0.014-0.002-0.021,0.001-0.039
			l0.042-0.134l0.098-0.301l0.204-0.58c0.148-0.391,0.232-0.77,0.358-1.158c0.248-0.742,0.434-1.66,0.663-2.52
			c0.43-1.864,0.876-3.794,1.332-5.77c0.96-4.045,2.206-8.02,3.895-11.47c1.683-3.45,3.789-6.378,6.022-8.375
			c0.523-0.524,1.136-0.924,1.657-1.338c0.54-0.398,1.026-0.787,1.569-1.046c0.522-0.282,1.009-0.531,1.459-0.747
			c0.444-0.227,0.866-0.399,1.277-0.493C272.767,258.847,273.698,258.844,273.906,259.273z"/>
		<g>
			<g>
				<g>
					<g>
						<path style="fill:#C0B480;" d="M500.728,272.746c-0.031,0.202-3.128,0.02-8.683-0.481c-1.39-0.11-2.926-0.304-4.621-0.4
							c-1.695-0.091-3.536-0.189-5.515-0.295c-1.978-0.114-4.091-0.236-6.332-0.365c-2.239-0.15-4.618-0.146-7.109-0.236
							c-19.93-0.659-47.501-0.378-77.896,1.027c-30.392,1.462-57.886,3.515-77.742,5.423c-4.959,0.507-9.458,0.892-13.388,1.368
							c-1.969,0.215-3.802,0.416-5.488,0.6c-1.681,0.216-3.217,0.413-4.598,0.59c-1.383,0.173-2.611,0.328-3.676,0.461
							c-1.057,0.168-1.951,0.31-2.673,0.425c-1.453,0.211-2.233,0.276-2.26,0.177c-0.026-0.098,0.704-0.354,2.127-0.756
							c0.715-0.191,1.601-0.428,2.647-0.708c1.054-0.239,2.275-0.462,3.65-0.731c1.376-0.258,2.906-0.564,4.585-0.849
							c1.682-0.259,3.51-0.54,5.474-0.843c3.927-0.633,8.416-1.164,13.375-1.806c19.848-2.444,47.37-4.83,77.831-6.295
							c30.462-1.408,58.135-1.361,78.127-0.165c2.499,0.158,4.881,0.224,7.128,0.447c2.247,0.21,4.365,0.408,6.347,0.593
							c1.979,0.193,3.822,0.374,5.518,0.539c1.693,0.179,3.232,0.46,4.618,0.659C497.718,271.978,500.759,272.545,500.728,272.746z"
							/>
					</g>
				</g>
			</g>
			<g>
				<g>
					<g>
						<path style="fill:#C0B480;" d="M500.626,291.705c-0.025,0.203-1.979,0.216-5.479,0.068c-1.749-0.074-3.885-0.189-6.36-0.34
							c-0.619-0.039-1.259-0.079-1.92-0.121c-0.663-0.013-1.347-0.025-2.052-0.038c-1.407-0.028-2.896-0.059-4.458-0.09
							c-3.125-0.051-6.541-0.2-10.214-0.226c-3.674,0.012-7.6,0.025-11.73,0.038c-4.129-0.05-8.466,0.135-12.96,0.22
							c-4.494,0.108-9.147,0.164-13.91,0.397c-4.764,0.183-9.416,0.362-13.909,0.535c-4.491,0.229-8.824,0.451-12.953,0.662
							c-4.13,0.178-8.052,0.414-11.723,0.639c-3.673,0.203-7.094,0.392-10.218,0.565c-12.491,0.759-20.238,1.1-20.277,0.681
							c-0.019-0.202,1.892-0.562,5.368-1.039c3.476-0.465,8.51-1.101,14.747-1.72c3.121-0.283,6.539-0.593,10.208-0.925
							c3.67-0.331,7.594-0.658,11.73-0.911c4.135-0.266,8.476-0.545,12.975-0.835c4.506-0.193,9.171-0.393,13.949-0.597
							c4.776-0.234,9.449-0.27,13.962-0.339c4.513-0.046,8.863-0.173,13.015-0.049c4.148,0.082,8.092,0.161,11.782,0.234
							c3.689,0.132,7.126,0.402,10.261,0.587c1.566,0.105,3.059,0.206,4.471,0.301c0.705,0.051,1.391,0.101,2.055,0.149
							c0.663,0.081,1.305,0.161,1.925,0.237c2.481,0.31,4.615,0.592,6.355,0.842C498.746,291.132,500.652,291.504,500.626,291.705z"
							/>
					</g>
				</g>
			</g>
			<g>
				<g>
					<g>
						<path style="fill:#C0B480;" d="M352.212,297.008c0.089,0.829-15.869,3.102-35.569,5.222
							c-9.854,1.051-18.767,1.964-25.23,2.552c-1.61,0.162-3.067,0.309-4.347,0.438c-1.286,0.11-2.394,0.193-3.276,0.315
							c-1.786,0.197-2.821,0.218-2.879,0.021c-0.057-0.194,0.875-0.59,2.645-1.145c0.887-0.302,1.979-0.552,3.247-0.818
							c1.269-0.271,2.719-0.572,4.325-0.876c6.423-1.121,15.335-2.365,25.196-3.417C336.05,297.177,352.127,296.217,352.212,297.008
							z"/>
					</g>
				</g>
			</g>
			<g>
				<g>
					<g>
						<path style="fill:#C0B480;" d="M494.904,279.299c-0.03,0.202-1.003,0.292-2.721,0.285c-0.859-0.003-1.905-0.032-3.113-0.084
							c-0.605-0.018-1.247-0.074-1.935-0.078c-0.688,0.002-1.416,0.004-2.181,0.006c-1.524-0.014-3.194-0.029-4.987-0.046
							c-1.79-0.025-3.714,0.059-5.73,0.07c-4.032,0.003-8.478,0.195-13.14,0.272c-9.333,0.287-17.803,0.502-23.955,0.419
							c-6.152-0.079-9.961-0.456-9.957-0.844c0.003-0.426,3.785-0.787,9.894-1.24c6.109-0.448,14.566-0.993,23.935-1.281
							c4.692-0.078,9.158-0.188,13.237-0.041c2.038,0.064,3.971,0.071,5.784,0.202c1.811,0.147,3.498,0.283,5.039,0.408
							c0.768,0.071,1.5,0.14,2.192,0.204c0.692,0.077,1.343,0.21,1.951,0.307c1.215,0.21,2.258,0.407,3.105,0.587
							C494.019,278.805,494.935,279.098,494.904,279.299z"/>
					</g>
				</g>
			</g>
			<g>
				<g>
					<g>
						<path style="fill:#C0B480;" d="M414.806,279.299c0.028,0.41-7.468,1.298-19.598,2.451c-12.13,1.154-28.894,2.573-47.404,4.045
							c-18.509,1.433-35.271,2.73-47.406,3.67c-6.061,0.474-10.966,0.858-14.357,1.123c-3.398,0.233-5.221,0.513-5.295,0.286
							c-0.063-0.16,1.773-0.84,5.14-1.423c3.366-0.638,8.255-1.316,14.307-2.061c12.104-1.453,28.857-3.052,47.376-4.534
							c18.519-1.474,35.314-2.564,47.487-3.186C407.229,279.049,414.778,278.896,414.806,279.299z"/>
					</g>
				</g>
			</g>
		</g>
		<g>
			<g>
				<g>
					<g>
						<path style="fill:#C0B480;" d="M506.744,334.874c-0.023,0.203-3.125,0.137-8.694-0.154c-1.394-0.058-2.936-0.194-4.633-0.226
							c-1.697-0.027-3.541-0.056-5.523-0.087c-1.979-0.039-4.096-0.081-6.341-0.126c-2.243-0.066-4.621,0.028-7.112,0.031
							c-19.94,0.091-47.481,1.41-77.802,3.957c-30.315,2.604-57.712,5.69-77.481,8.344c-4.937,0.694-9.418,1.248-13.327,1.871
							c-1.959,0.289-3.783,0.558-5.461,0.806c-1.672,0.279-3.199,0.533-4.573,0.762c-1.375,0.226-2.597,0.426-3.656,0.599
							c-1.049,0.208-1.938,0.384-2.655,0.526c-1.444,0.266-2.222,0.359-2.252,0.262c-0.03-0.097,0.689-0.381,2.097-0.836
							c0.708-0.218,1.584-0.488,2.619-0.808c1.044-0.279,2.256-0.547,3.62-0.868c1.365-0.309,2.882-0.673,4.55-1.02
							c1.671-0.322,3.487-0.672,5.438-1.049c3.9-0.78,8.366-1.48,13.298-2.308c19.741-3.189,47.154-6.608,77.538-9.219
							c30.388-2.553,58.042-3.548,78.065-3.105c2.503,0.064,4.886,0.04,7.14,0.179c2.253,0.125,4.378,0.243,6.364,0.353
							c1.985,0.119,3.834,0.229,5.534,0.331c1.7,0.116,3.248,0.339,4.641,0.485C503.707,334.221,506.767,334.672,506.744,334.874z"
							/>
					</g>
				</g>
			</g>
			<g>
				<g>
					<g>
						<path style="fill:#C0B480;" d="M500.896,345.747c-0.023,0.203-0.718,0.34-1.943,0.416c-1.228,0.078-2.977,0.06-5.155,0.141
							c-4.352,0.074-10.359,0.177-16.991,0.29c-6.642,0.091-12.678,0.085-17.05-0.101c-4.375-0.189-7.083-0.525-7.086-0.931
							c-0.004-0.408,2.69-0.81,7.045-1.153c4.357-0.347,10.378-0.671,17.052-0.762c6.673-0.07,12.735,0.076,17.122,0.574
							c2.189,0.186,3.96,0.524,5.168,0.799C500.267,345.297,500.919,345.545,500.896,345.747z"/>
					</g>
				</g>
			</g>
			<g>
				<g>
					<g>
						<path style="fill:#C0B480;" d="M443.948,346.891c0.008,0.204-2.193,0.502-6.176,0.865c-3.983,0.33-9.744,0.806-16.862,1.395
							c-14.232,1.181-33.878,2.882-55.516,5.227c-21.642,2.301-41.2,4.759-55.325,6.735c-7.057,1.009-12.768,1.857-16.688,2.541
							c-0.984,0.16-1.858,0.301-2.616,0.424c-0.747,0.15-1.384,0.27-1.902,0.357c-1.036,0.175-1.6,0.221-1.63,0.124
							c-0.03-0.097,0.475-0.333,1.472-0.697c0.499-0.182,1.12-0.395,1.859-0.639c0.746-0.2,1.606-0.432,2.575-0.692
							c3.882-1.036,9.56-2.201,16.601-3.478c14.088-2.51,33.652-5.301,55.34-7.607c21.684-2.35,41.405-3.726,55.697-4.376
							c3.574-0.132,6.809-0.251,9.649-0.355c2.841-0.084,5.291-0.093,7.292-0.105C441.723,346.598,443.94,346.688,443.948,346.891z"
							/>
					</g>
				</g>
			</g>
			<g>
				<g>
					<g>
						<path style="fill:#C0B480;" d="M505.651,323.946c-0.023,0.203-2.353,0.18-6.528-0.034c-4.181-0.165-10.227-0.378-17.699-0.436
							c-3.735-0.049-7.831,0.016-12.223,0.028c-4.395,0.108-9.088,0.135-14.027,0.331c-9.878,0.279-20.731,0.828-32.114,1.509
							c-22.769,1.373-43.356,3.19-58.264,4.502c-7.453,0.661-13.488,1.191-17.665,1.524c-4.176,0.327-6.5,0.412-6.525,0.208
							c-0.025-0.201,2.25-0.671,6.389-1.349c4.138-0.683,10.144-1.53,17.58-2.457c14.872-1.845,35.474-3.995,58.306-5.372
							c11.415-0.684,22.309-1.151,32.229-1.282c4.958-0.122,9.676-0.058,14.088-0.06c4.415,0.094,8.526,0.15,12.278,0.332
							c7.505,0.325,13.569,0.858,17.741,1.376C503.387,323.336,505.674,323.745,505.651,323.946z"/>
					</g>
				</g>
			</g>
			<g>
				<g>
					<g>
						<path style="fill:#C0B480;" d="M333.979,333.183c0.127,0.82-10.533,3.032-23.753,4.901c-6.611,0.94-12.606,1.676-16.958,2.111
							c-4.362,0.426-6.98,0.71-7.128,0.319c-0.145-0.375,2.496-1.424,6.788-2.376c4.294-0.965,10.264-2.031,16.879-2.972
							C323.045,333.294,333.856,332.393,333.979,333.183z"/>
					</g>
				</g>
			</g>
		</g>
		<g>
			<g>
				<g>
					<g>
						<path style="fill:#C0B480;" d="M304.682,453.905c-0.058-0.195,2.881-1.16,8.262-2.74c1.349-0.38,2.836-0.861,4.492-1.264
							c1.659-0.388,3.461-0.81,5.398-1.263c1.94-0.445,4.014-0.922,6.213-1.427c2.198-0.518,4.55-0.898,7.006-1.385
							c19.66-3.828,47.084-7.53,77.465-10.159c30.388-2.572,57.984-3.845,77.98-4.045c5.001-0.019,9.521-0.086,13.498,0.023
							c1.986,0.04,3.835,0.078,5.537,0.112c1.702,0.061,3.259,0.161,4.657,0.235c1.398,0.086,2.639,0.146,3.714,0.243
							c1.074,0.14,1.983,0.258,2.718,0.354c1.464,0.21,2.221,0.369,2.208,0.47c-0.014,0.101-0.796,0.14-2.264,0.122
							c-0.732-0.019-1.637-0.042-2.706-0.069c-1.073,0.009-2.311,0.018-3.705,0.028c-1.393,0.007-2.94,0.015-4.636,0.023
							c-1.696,0.04-3.539,0.083-5.52,0.13c-3.958,0.048-8.468,0.261-13.451,0.413c-19.934,0.732-47.458,2.33-77.776,4.896
							c-30.314,2.624-57.682,5.987-77.35,9.274c-2.457,0.419-4.816,0.729-7.016,1.174c-2.205,0.424-4.284,0.823-6.228,1.197
							c-1.947,0.366-3.759,0.708-5.428,1.022c-1.667,0.318-3.164,0.715-4.528,1.008C307.785,453.509,304.739,454.1,304.682,453.905z
							"/>
					</g>
				</g>
			</g>
			<g>
				<g>
					<g>
						<path style="fill:#C0B480;" d="M307.29,472.686c-0.052-0.197,1.789-0.818,5.172-1.775c1.692-0.479,3.77-1.04,6.188-1.675
							c0.604-0.158,1.23-0.321,1.877-0.489c0.652-0.136,1.325-0.276,2.017-0.42c1.387-0.28,2.853-0.577,4.392-0.889
							c3.083-0.599,6.453-1.319,10.093-1.939c3.648-0.56,7.546-1.159,11.648-1.789c4.099-0.672,8.428-1.121,12.907-1.671
							c4.481-0.528,9.119-1.11,13.884-1.51c4.763-0.429,9.413-0.848,13.905-1.252c4.498-0.308,8.838-0.604,12.972-0.887
							c4.133-0.296,8.065-0.49,11.747-0.647c3.682-0.155,7.11-0.3,10.241-0.433c6.264-0.21,11.338-0.246,14.845-0.243
							c3.508,0.015,5.45,0.119,5.458,0.323c0.017,0.418-7.708,1.104-20.189,2.002c-3.119,0.242-6.535,0.507-10.203,0.79
							c-3.668,0.263-7.587,0.548-11.704,0.917c-4.12,0.337-8.444,0.689-12.927,1.056c-4.476,0.423-9.111,0.86-13.857,1.308
							c-4.753,0.398-9.372,0.958-13.841,1.445c-4.465,0.509-8.789,0.898-12.875,1.494c-4.096,0.532-7.989,1.038-11.633,1.513
							c-3.637,0.511-7.004,1.109-10.094,1.573c-1.545,0.237-3.016,0.464-4.408,0.679c-0.696,0.105-1.373,0.209-2.029,0.309
							c-0.649,0.129-1.279,0.253-1.887,0.373c-2.434,0.478-4.536,0.873-6.26,1.179C309.28,472.637,307.342,472.882,307.29,472.686z"
							/>
					</g>
				</g>
			</g>
			<g>
				<g>
					<g>
						<path style="fill:#C0B480;" d="M455.102,458.332c-0.021-0.801,16.043-1.971,35.876-2.475
							c9.914-0.261,18.912-0.206,25.427,0.056c1.633,0.089,3.109,0.196,4.403,0.297c1.292,0.097,2.407,0.2,3.326,0.383
							c1.829,0.316,2.805,0.587,2.773,0.788c-0.031,0.201-1.061,0.317-2.857,0.356c-0.891-0.004-1.999,0.061-3.289,0.121
							c-1.285,0.041-2.749,0.088-4.366,0.14c-6.484,0.271-15.44,0.545-25.347,0.807
							C471.242,459.308,455.124,459.161,455.102,458.332z"/>
					</g>
				</g>
			</g>
			<g>
				<g>
					<g>
						<path style="fill:#C0B480;" d="M311.323,459.63c-0.058-0.196,0.811-0.608,2.444-1.19c0.816-0.291,1.824-0.624,3.001-0.992
							c0.59-0.177,1.217-0.395,1.892-0.563c0.678-0.155,1.395-0.32,2.147-0.492c1.511-0.327,3.165-0.686,4.941-1.07
							c1.78-0.37,3.695-0.632,5.707-0.965c4.024-0.684,8.466-1.165,13.127-1.708c9.325-0.952,17.78-1.53,23.895-1.893
							c6.115-0.358,9.911-0.5,9.971-0.075c0.055,0.382-3.671,1.258-9.758,2.149c-6.087,0.896-14.512,1.802-23.8,2.75
							c-4.63,0.54-9.063,0.938-13.061,1.467c-2,0.256-3.918,0.427-5.69,0.688c-1.775,0.254-3.428,0.489-4.938,0.704
							c-0.758,0.1-1.48,0.193-2.162,0.282c-0.681,0.095-1.31,0.235-1.907,0.333c-1.191,0.212-2.224,0.378-3.074,0.496
							C312.355,459.786,311.379,459.826,311.323,459.63z"/>
					</g>
				</g>
			</g>
			<g>
				<g>
					<g>
						<path style="fill:#C0B480;" d="M390.719,449.047c-0.025-0.405,7.478-1.252,19.625-2.244
							c12.147-0.991,28.938-2.129,47.49-3.115c18.551-0.979,35.368-1.607,47.559-1.767c6.097-0.061,11.033-0.035,14.453,0.153
							c3.415,0.134,5.324,0.566,5.283,0.734c-0.044,0.233-1.887,0.196-5.286,0.413c-3.396,0.185-8.309,0.452-14.379,0.783
							c-12.152,0.672-28.938,1.601-47.475,2.626c-18.541,0.986-35.346,1.795-47.521,2.253
							C398.293,449.344,390.745,449.456,390.719,449.047z"/>
					</g>
				</g>
			</g>
		</g>
		<g>
			<g>
				<g>
					<g>
						<path style="fill:#C0B480;" d="M290.294,404.915c-0.047-0.198,2.938-1.01,8.392-2.311c1.366-0.311,2.876-0.715,4.551-1.031
							c1.677-0.303,3.499-0.631,5.456-0.983c1.96-0.345,4.056-0.714,6.278-1.105c2.222-0.405,4.59-0.663,7.068-1.022
							c19.83-2.811,47.408-5.097,77.884-6.16c30.478-1.006,58.103-0.857,78.084-0.028c4.995,0.238,9.513,0.404,13.478,0.717
							c1.982,0.142,3.826,0.275,5.523,0.398c1.697,0.147,3.247,0.329,4.639,0.475c1.392,0.157,2.628,0.28,3.697,0.434
							c1.065,0.194,1.968,0.359,2.696,0.492c1.451,0.285,2.199,0.483,2.181,0.583c-0.019,0.1-0.802,0.098-2.267,0.005
							c-0.73-0.057-1.633-0.126-2.699-0.208c-1.072-0.047-2.309-0.102-3.701-0.163c-1.392-0.065-2.939-0.137-4.631-0.216
							c-1.696-0.047-3.539-0.099-5.518-0.154c-3.955-0.156-8.471-0.175-13.455-0.28c-19.944-0.294-47.515-0.113-77.925,0.89
							c-30.408,1.061-57.911,3.012-77.722,5.282c-2.475,0.292-4.847,0.479-7.066,0.811c-2.224,0.31-4.32,0.603-6.281,0.876
							c-1.963,0.265-3.791,0.513-5.473,0.739c-1.682,0.233-3.197,0.552-4.574,0.773
							C293.413,404.679,290.341,405.112,290.294,404.915z"/>
					</g>
				</g>
			</g>
			<g>
				<g>
					<g>
						<path style="fill:#C0B480;" d="M297.389,415.019c-0.047-0.198,0.571-0.523,1.739-0.942c1.168-0.416,2.886-0.962,5.038-1.406
							c4.297-1.014,10.299-1.876,16.934-2.597c6.638-0.699,12.654-1.091,17.022-1.263c4.364-0.174,7.087-0.094,7.132,0.314
							c0.044,0.401-2.604,1.055-6.926,1.761c-4.319,0.702-10.312,1.423-16.919,2.119c-6.598,0.672-12.576,1.281-16.905,1.723
							c-2.174,0.178-3.908,0.403-5.136,0.472C298.142,415.27,297.436,415.217,297.389,415.019z"/>
					</g>
				</g>
			</g>
			<g>
				<g>
					<g>
						<path style="fill:#C0B480;" d="M354.072,409.413c-0.016-0.203,2.174-0.557,6.152-1.021c1.989-0.225,4.423-0.506,7.254-0.759
							c2.832-0.232,6.058-0.497,9.623-0.79c14.268-1.047,34.014-2.015,55.823-2.249c21.808-0.278,41.564,0.176,55.851,1
							c7.143,0.434,12.919,0.918,16.896,1.487c0.992,0.145,1.874,0.272,2.639,0.384c0.763,0.154,1.404,0.292,1.921,0.414
							c1.033,0.243,1.563,0.418,1.544,0.519c-0.019,0.101-0.583,0.12-1.633,0.069c-0.525-0.026-1.171-0.069-1.931-0.131
							c-0.768-0.032-1.652-0.069-2.648-0.111c-3.974-0.216-9.744-0.381-16.871-0.548c-14.259-0.289-33.97-0.414-55.732-0.136
							c-21.764,0.234-41.473,0.87-55.744,1.384c-7.138,0.258-12.915,0.468-16.909,0.612
							C356.309,409.649,354.088,409.616,354.072,409.413z"/>
					</g>
				</g>
			</g>
			<g>
				<g>
					<g>
						<path style="fill:#C0B480;" d="M290.085,393.936c-0.047-0.199,2.175-0.876,6.248-1.934c4.081-1.009,10.039-2.257,17.453-3.468
							c3.705-0.625,7.78-1.169,12.153-1.784c4.381-0.52,9.059-1.143,13.996-1.608c9.867-1.044,20.739-1.87,32.154-2.543
							c22.835-1.337,43.546-1.643,58.532-1.572c7.494,0.039,13.558,0.169,17.747,0.358c4.19,0.183,6.505,0.381,6.504,0.585
							c-0.001,0.203-2.318,0.393-6.504,0.563c-4.186,0.164-10.242,0.352-17.721,0.579c-14.958,0.462-35.616,1.097-58.387,2.43
							c-11.384,0.671-22.226,1.412-32.067,2.304c-4.927,0.39-9.591,0.919-13.967,1.332c-4.363,0.508-8.437,0.929-12.14,1.419
							c-7.414,0.942-13.392,1.871-17.523,2.53C292.442,393.835,290.132,394.134,290.085,393.936z"/>
					</g>
				</g>
			</g>
			<g>
				<g>
					<g>
						<path style="fill:#C0B480;" d="M461.643,382.778c0.029-0.804,10.87-1.187,24.235-0.896c6.681,0.151,12.734,0.501,17.112,0.952
							c4.374,0.437,7.12,1.167,7.021,1.559c-0.101,0.403-2.733,0.431-7.115,0.524c-4.373,0.083-10.412,0.063-17.088-0.087
							C472.46,384.539,461.614,383.603,461.643,382.778z"/>
					</g>
				</g>
			</g>
		</g>
		<g>
			<g>
				<g>
					<g>
						<path style="fill:#C0B480;" d="M538.783,499.439c-0.023,0.202-3.125,0.137-8.694-0.154c-1.394-0.058-2.936-0.194-4.633-0.226
							c-1.697-0.026-3.541-0.056-5.522-0.087c-1.979-0.039-4.097-0.081-6.341-0.126c-2.243-0.066-4.621,0.028-7.112,0.031
							c-19.94,0.092-47.481,1.41-77.802,3.958c-30.315,2.604-57.712,5.69-77.481,8.344c-4.937,0.694-9.418,1.248-13.327,1.871
							c-1.96,0.289-3.783,0.559-5.461,0.807c-1.672,0.278-3.199,0.533-4.573,0.763c-1.375,0.225-2.597,0.425-3.656,0.599
							c-1.049,0.208-1.938,0.384-2.655,0.525c-1.443,0.266-2.222,0.36-2.252,0.263c-0.03-0.098,0.689-0.382,2.097-0.836
							c0.708-0.219,1.584-0.489,2.619-0.808c1.044-0.279,2.256-0.548,3.62-0.869c1.365-0.31,2.882-0.673,4.55-1.021
							c1.671-0.322,3.487-0.672,5.438-1.049c3.9-0.78,8.366-1.479,13.298-2.308c19.741-3.188,47.154-6.608,77.538-9.219
							c30.388-2.554,58.042-3.548,78.066-3.105c2.503,0.064,4.886,0.04,7.14,0.179c2.253,0.125,4.378,0.243,6.364,0.353
							c1.985,0.119,3.834,0.23,5.534,0.331c1.7,0.115,3.248,0.339,4.641,0.484C535.747,498.786,538.806,499.237,538.783,499.439z"/>
					</g>
				</g>
			</g>
			<g>
				<g>
					<g>
						<path style="fill:#C0B480;" d="M532.935,510.31c-0.023,0.203-0.718,0.34-1.943,0.416c-1.228,0.078-2.977,0.06-5.156,0.141
							c-4.351,0.074-10.358,0.177-16.99,0.291c-6.643,0.091-12.679,0.085-17.051-0.101c-4.375-0.189-7.083-0.525-7.086-0.932
							c-0.003-0.409,2.69-0.81,7.045-1.153c4.357-0.347,10.379-0.671,17.052-0.763c6.674-0.07,12.735,0.076,17.122,0.574
							c2.19,0.187,3.96,0.524,5.169,0.799C532.306,509.86,532.958,510.108,532.935,510.31z"/>
					</g>
				</g>
			</g>
			<g>
				<g>
					<g>
						<path style="fill:#C0B480;" d="M475.986,511.457c0.008,0.204-2.193,0.501-6.176,0.864c-3.982,0.329-9.744,0.806-16.862,1.395
							c-14.231,1.18-33.878,2.882-55.516,5.227c-21.643,2.301-41.2,4.759-55.325,6.735c-7.057,1.01-12.767,1.857-16.688,2.541
							c-0.984,0.16-1.858,0.302-2.616,0.425c-0.747,0.15-1.384,0.271-1.902,0.357c-1.036,0.175-1.6,0.222-1.63,0.124
							c-0.03-0.098,0.475-0.334,1.472-0.697c0.499-0.182,1.12-0.395,1.859-0.638c0.746-0.201,1.606-0.433,2.575-0.693
							c3.882-1.036,9.56-2.2,16.601-3.477c14.088-2.511,33.652-5.302,55.34-7.608c21.684-2.35,41.404-3.727,55.696-4.376
							c3.574-0.132,6.809-0.251,9.649-0.355c2.841-0.084,5.291-0.093,7.292-0.104C473.761,511.164,475.978,511.253,475.986,511.457z
							"/>
					</g>
				</g>
			</g>
			<g>
				<g>
					<g>
						<path style="fill:#C0B480;" d="M537.69,488.511c-0.023,0.203-2.352,0.18-6.528-0.034c-4.181-0.165-10.227-0.379-17.699-0.437
							c-3.735-0.049-7.831,0.016-12.223,0.028c-4.395,0.107-9.089,0.134-14.027,0.331c-9.878,0.278-20.732,0.827-32.114,1.508
							c-22.768,1.373-43.357,3.19-58.264,4.503c-7.454,0.66-13.489,1.19-17.665,1.523c-4.176,0.326-6.5,0.411-6.525,0.209
							c-0.025-0.202,2.25-0.672,6.389-1.349c4.138-0.684,10.144-1.53,17.58-2.457c14.873-1.845,35.475-3.995,58.307-5.372
							c11.415-0.683,22.309-1.15,32.229-1.281c4.958-0.122,9.676-0.058,14.088-0.06c4.415,0.094,8.526,0.15,12.278,0.333
							c7.505,0.325,13.569,0.858,17.741,1.376C535.426,487.901,537.713,488.309,537.69,488.511z"/>
					</g>
				</g>
			</g>
			<g>
				<g>
					<g>
						<path style="fill:#C0B480;" d="M366.018,497.748c0.128,0.819-10.533,3.03-23.753,4.9c-6.611,0.939-12.606,1.676-16.958,2.11
							c-4.362,0.427-6.98,0.711-7.128,0.319c-0.144-0.376,2.496-1.424,6.788-2.376c4.293-0.966,10.264-2.031,16.879-2.972
							C355.084,497.858,365.895,496.957,366.018,497.748z"/>
					</g>
				</g>
			</g>
		</g>
		<path style="opacity:0.9;fill:#F4E9AE;" d="M273.543,340.466c0,0-8.374-2.731-20.753,2.366c0,0-1.092,12.197,3.277,20.936
			c0,0,12.379,1.456,18.933-2.914C275,360.854,277.912,354.301,273.543,340.466z"/>
		<path style="fill:#454343;" d="M280.459,318.254c0.475,0.969-2.298,2.881-5.035,6.893c-1.386,1.995-2.685,4.586-3.828,7.657
			c-1.145,3.079-2.09,6.64-3.023,10.572c-0.475,1.958-0.95,3.927-1.5,5.866c-0.314,0.995-0.561,1.933-0.966,2.935
			c-0.194,0.485-0.367,0.993-0.58,1.439l-0.308,0.676c-0.154,0.308-0.307,0.614-0.458,0.918l-0.237,0.469l-0.314,0.529
			c-0.222,0.341-0.397,0.73-0.65,1.017c-0.466,0.625-0.956,1.182-1.509,1.571c-0.542,0.401-1.125,0.678-1.754,0.829
			c-0.633,0.149-1.32,0.13-1.901-0.045c-1.17-0.329-2.163-1.128-2.994-2.131c-0.41-0.506-0.789-1.014-1.137-1.522
			c-0.104-0.144-0.153-0.223-0.194-0.291l-0.139-0.225l-0.267-0.435c-1.337-2.263-2.411-3.828-3.287-4.958
			c-0.859-1.111-1.43-1.822-1.229-2.276c0.18-0.419,1.19-0.539,2.8,0.079c1.592,0.597,3.652,2.112,5.576,4.127l0.362,0.37
			l0.182,0.185c0.065,0.069,0.123,0.128,0.13,0.121c0.084,0.048,0.164,0.089,0.236,0.122c0.149,0.064,0.276,0.104,0.402,0.084
			c0.135-0.009,0.242-0.186,0.268-0.322c0.02-0.069,0.027-0.134,0.03-0.19l0.001-0.081c0.001-0.013-0.003-0.02,0.001-0.039
			l0.04-0.134l0.098-0.3l0.203-0.581c0.149-0.39,0.233-0.769,0.358-1.157c0.249-0.742,0.435-1.66,0.663-2.521
			c0.43-1.864,0.875-3.793,1.332-5.77c0.96-4.044,2.206-8.019,3.895-11.469c1.683-3.45,3.789-6.379,6.022-8.376
			c0.523-0.525,1.137-0.924,1.658-1.337c0.539-0.399,1.026-0.788,1.568-1.047c0.521-0.281,1.009-0.531,1.459-0.747
			c0.443-0.227,0.866-0.398,1.278-0.493C279.321,317.828,280.252,317.825,280.459,318.254z"/>
		<path style="opacity:0.9;fill:#F4E9AE;" d="M280.096,398.901c0,0-8.373-2.73-20.753,2.366c0,0-1.093,12.198,3.276,20.936
			c0,0,12.379,1.454,18.933-2.914C281.553,419.29,284.465,412.735,280.096,398.901z"/>
		<path style="opacity:0.9;fill:#F4E9AE;" d="M290.653,454.969c0,0-8.373-2.732-20.752,2.365c0,0-1.092,12.198,3.277,20.937
			c0,0,12.379,1.456,18.933-2.914C292.111,475.357,295.022,468.803,290.653,454.969z"/>
		<path style="opacity:0.9;fill:#F4E9AE;" d="M303.789,509.181c0,0-8.487-2.356-20.627,3.288c0,0-0.547,12.234,4.207,20.77
			c0,0,12.432,0.902,18.784-3.755C306.153,529.484,308.771,522.806,303.789,509.181z"/>
		<path id="SVGID_x5F_1_x5F_" style="fill:none;" d="M287.739,248.718c0,0,98.301-20.753,185.678-9.83"/>
		<text>		<textPath  xlink:href="#SVGID_x5F_1_x5F_" startOffset="19.434%">
<tspan  style="fill:#FF9E00; font-family:'Gorditas-Regular'; font-size:29.4905px;">Check List</tspan>		</textPath>
</text>
		<g>
			<g>
				<g>
					<path style="fill:#D9CE9D;" d="M209.102,417.469c-0.059,0.01-0.229-0.729-0.498-2.145c-0.269-1.416-0.637-3.51-1.093-6.209
						c-0.985-5.389-2.003-13.249-3.082-22.979c-2.025-19.47-3.246-46.567-1.899-76.391c1.244-29.826,4.02-56.706,5.859-76.158
						c0.95-9.725,1.719-17.596,2.25-23.036c0.269-2.72,0.492-4.831,0.662-6.261c0.171-1.43,0.289-2.179,0.349-2.174
						c0.059,0.004,0.058,0.762-0.001,2.201c-0.058,1.439-0.172,3.559-0.338,6.288c-0.319,5.46-0.918,13.349-1.702,23.09
						c-1.528,19.484-4.107,46.365-5.349,76.12c-1.342,29.756-0.319,56.753,1.388,76.204c0.919,9.72,1.75,17.587,2.529,22.997
						c0.353,2.711,0.613,4.818,0.77,6.252C209.106,416.702,209.16,417.459,209.102,417.469z"/>
				</g>
			</g>
		</g>
		<g>
			<g>
				<g>
					<path style="fill:#D9CE9D;" d="M256.795,585.128c-0.05,0.032-0.405-0.433-1.035-1.35c-0.631-0.917-1.537-2.287-2.689-4.062
						c-0.574-0.89-1.211-1.879-1.91-2.961c-0.702-1.081-1.335-2.329-2.083-3.633c-0.731-1.313-1.513-2.718-2.342-4.207
						c-0.413-0.746-0.838-1.514-1.274-2.301c-0.396-0.809-0.803-1.637-1.219-2.486c-0.828-1.701-1.696-3.483-2.6-5.341
						c-0.44-0.934-0.936-1.866-1.355-2.854c-0.424-0.985-0.856-1.989-1.296-3.011c-0.877-2.045-1.785-4.159-2.719-6.337
						c-0.884-2.197-1.727-4.486-2.626-6.819c-1.86-4.646-3.426-9.657-5.205-14.798c-1.573-5.205-3.312-10.564-4.76-16.145
						c-1.573-5.548-2.85-11.029-4.144-16.309c-1.159-5.31-2.345-10.417-3.262-15.327c-1.974-9.791-3.366-18.679-4.483-26.146
						c-1.066-7.477-1.791-13.544-2.225-17.744c-0.207-2.102-0.354-3.734-0.433-4.844c-0.08-1.109-0.093-1.695-0.033-1.702
						c0.059-0.007,0.188,0.565,0.38,1.66c0.192,1.096,0.446,2.715,0.756,4.801c0.639,4.17,1.548,10.203,2.767,17.641
						c1.271,7.428,2.784,16.273,4.838,26.018c0.956,4.887,2.172,9.97,3.35,15.257c1.312,5.254,2.595,10.714,4.162,16.237
						c1.442,5.56,3.162,10.896,4.706,16.085c1.749,5.122,3.274,10.123,5.084,14.758c0.874,2.328,1.689,4.614,2.544,6.811
						c0.902,2.178,1.778,4.291,2.625,6.335c0.422,1.022,0.837,2.028,1.245,3.015c0.401,0.99,0.878,1.924,1.3,2.859
						c0.864,1.864,1.693,3.652,2.485,5.36c0.396,0.854,0.782,1.688,1.159,2.5c0.415,0.793,0.819,1.565,1.212,2.316
						c0.783,1.504,1.522,2.923,2.213,4.249c0.705,1.319,1.294,2.586,1.95,3.687c0.647,1.106,1.239,2.116,1.771,3.025
						c1.06,1.822,1.872,3.246,2.406,4.223C256.588,584.565,256.845,585.094,256.795,585.128z"/>
				</g>
			</g>
		</g>
		<g>
			<g>
				<g>
					<path style="fill:#D9CE9D;" d="M248.422,594.959c-0.048,0.035-0.5-0.524-1.32-1.629c-0.394-0.563-0.949-1.219-1.464-2.081
						c-0.531-0.854-1.145-1.839-1.834-2.948c-2.635-4.51-5.975-11.31-9.384-19.989c-3.415-8.677-6.968-19.196-10.437-31.01
						c-3.446-11.819-6.816-24.929-9.906-38.784c-6.175-27.713-10.12-53.163-11.867-71.702c-0.883-9.27-1.203-16.81-1.189-22.021
						c0.021-1.303,0.04-2.46,0.056-3.463c0.028-1.002,0.102-1.85,0.144-2.534c0.097-1.369,0.177-2.085,0.237-2.082
						c0.06,0.003,0.097,0.725,0.112,2.092c0.006,0.683,0.014,1.529,0.023,2.527c0.03,0.999,0.064,2.151,0.103,3.448
						c0.193,5.186,0.698,12.682,1.734,21.906c2.054,18.447,6.179,43.802,12.34,71.45c3.083,13.823,6.397,26.911,9.749,38.719
						c3.374,11.802,6.793,22.321,10.045,31.013c3.249,8.694,6.395,15.523,8.83,20.1c0.633,1.131,1.196,2.136,1.684,3.007
						c0.466,0.886,0.97,1.565,1.315,2.155C248.112,594.294,248.47,594.923,248.422,594.959z"/>
				</g>
			</g>
		</g>
		<g>
			<g>
				<g>
					<path style="fill:#D9CE9D;" d="M230.582,492.652c-0.056,0.021-0.329-0.62-0.797-1.86c-0.468-1.241-1.131-3.081-1.968-5.458
						c-0.899-2.359-1.701-5.335-2.708-8.77c-0.485-1.722-1.055-3.552-1.56-5.516c-0.481-1.971-0.99-4.054-1.524-6.24
						c-2.179-8.742-4.186-19.278-6.205-31.004c-1.84-11.754-3.688-24.705-5.053-38.359c-1.373-13.65-2.422-26.685-2.966-38.564
						c-0.357-5.935-0.463-11.587-0.65-16.871c-0.099-5.288-0.161-10.215-0.151-14.712c0.054-8.997,0.366-16.276,0.714-21.296
						c0.214-2.508,0.394-4.454,0.536-5.771s0.245-2.005,0.305-2.001c0.059,0.005,0.073,0.704,0.044,2.027
						c-0.029,1.324-0.1,3.272-0.21,5.779c-0.14,5.019-0.265,12.281-0.163,21.256c0.069,4.486,0.202,9.401,0.362,14.674
						c0.25,5.271,0.409,10.907,0.809,16.828c0.63,11.849,1.726,24.852,3.095,38.472c1.362,13.624,3.158,26.547,4.906,38.284
						c1.927,11.706,3.803,22.234,5.822,30.979c0.49,2.189,0.958,4.275,1.399,6.248c0.461,1.969,0.986,3.801,1.425,5.529
						c0.914,3.445,1.619,6.441,2.416,8.822c0.736,2.399,1.294,4.269,1.654,5.545C230.476,491.951,230.638,492.631,230.582,492.652z"
						/>
				</g>
			</g>
		</g>
		<g>
			<g>
				<g>
					<path style="fill:#D9CE9D;" d="M239.319,605.517c-0.053,0.028-0.321-0.379-0.785-1.183c-0.446-0.811-1.163-1.987-1.917-3.578
						c-1.537-3.17-3.645-7.819-5.881-13.7c-4.581-11.724-9.979-28.256-15.003-46.758c-4.999-18.509-8.669-35.495-10.814-47.88
						c-1.029-6.2-1.84-11.221-2.234-14.716c-0.436-3.487-0.62-5.423-0.501-5.44c0.118-0.017,0.528,1.886,1.168,5.336
						c0.598,3.457,1.591,8.437,2.772,14.593c2.448,12.298,6.296,29.191,11.282,47.653c5.011,18.453,10.208,34.994,14.479,46.781
						c2.082,5.916,4.005,10.608,5.346,13.848C238.621,603.687,239.441,605.451,239.319,605.517z"/>
				</g>
			</g>
		</g>
		<g>
			<g>
				<g>
					<path style="fill:#D9CE9D;" d="M599.03,577.48c0.041,0.073-0.952,0.654-2.892,1.697c-0.979,0.499-2.154,1.21-3.628,1.854
						c-1.485,0.623-3.198,1.341-5.127,2.149c-7.793,3.037-19.441,6.444-34.088,9.336c-29.285,5.907-70.401,9.853-115.812,11.387
						c-45.425,1.506-86.61,0.447-116.334-1.696c-14.862-1.074-26.859-2.497-35.079-3.967c-4.113-0.711-7.27-1.498-9.383-2.104
						c-2.096-0.697-3.173-1.1-3.145-1.179c0.028-0.079,1.159,0.168,3.27,0.706c2.136,0.448,5.294,1.08,9.409,1.644
						c8.219,1.176,20.199,2.334,35.041,3.188c29.682,1.7,70.801,2.486,116.14,0.983c45.325-1.531,86.345-5.198,115.569-10.647
						c14.619-2.663,26.249-5.794,34.082-8.536c1.944-0.725,3.672-1.368,5.169-1.926c1.493-0.57,2.689-1.204,3.697-1.63
						C597.917,577.844,598.99,577.407,599.03,577.48z"/>
				</g>
			</g>
		</g>
		<g>
			<g>
				<g>
					<path style="fill:#D9CE9D;" d="M477.428,612.796c0.025,0.166-2.719,0.665-7.719,1.427c-2.501,0.37-5.578,0.624-9.148,1.002
						c-1.784,0.201-3.696,0.323-5.725,0.455c-2.029,0.133-4.174,0.273-6.426,0.419c-18.023,1.009-42.961,1.068-70.43-0.039
						c-27.469-1.152-52.297-3.213-70.191-5.43c-4.472-0.563-8.52-1.045-12.059-1.611c-3.539-0.555-6.596-0.958-9.072-1.457
						c-4.96-0.928-7.685-1.518-7.656-1.684c0.029-0.165,2.807,0.11,7.796,0.748c2.489,0.354,5.56,0.621,9.106,1.046
						c3.544,0.437,7.599,0.799,12.072,1.251c17.897,1.775,42.691,3.56,70.104,4.712c27.414,1.104,52.281,1.315,70.258,0.748
						c2.246-0.086,4.386-0.168,6.409-0.245c2.025-0.071,3.936-0.131,5.715-0.268c3.561-0.247,6.642-0.363,9.145-0.588
						C474.614,612.813,477.403,612.631,477.428,612.796z"/>
				</g>
			</g>
		</g>
		<g>
			<g>
				<g>
					<path style="fill:#D9CE9D;" d="M598.302,585.856c0.038,0.075-0.521,0.435-1.626,1.055c-1.092,0.65-2.785,1.433-4.981,2.42
						c-4.416,1.912-11.016,4.167-19.327,6.314c-16.615,4.355-40.05,8.14-66.04,10.63c-25.996,2.509-49.64,3.396-66.747,3.562
						c-8.556,0.08-15.48-0.008-20.264-0.163c-4.783-0.158-7.426-0.353-7.424-0.517c0.002-0.172,2.647-0.297,7.425-0.429
						c4.776-0.144,11.685-0.352,20.224-0.608c17.065-0.604,40.637-1.76,66.553-4.261c25.911-2.482,49.268-5.982,65.863-9.881
						c8.304-1.919,14.914-3.903,19.392-5.527C595.822,586.819,598.206,585.672,598.302,585.856z"/>
				</g>
			</g>
		</g>
		<g>
			<g>
				<g>
					<path style="fill:#D9CE9D;" d="M465.049,620.806c0.013,0.168-2.402,0.479-6.787,0.901c-2.192,0.237-4.88,0.366-8,0.574
						c-3.12,0.216-6.676,0.35-10.607,0.502c-7.861,0.311-17.225,0.456-27.619,0.512c-10.393-0.012-21.818-0.085-33.801-0.427
						c-23.968-0.592-45.654-1.903-61.314-3.374c-3.916-0.354-7.45-0.797-10.555-1.139c-3.101-0.406-5.766-0.811-7.941-1.136
						c-4.339-0.796-6.709-1.353-6.679-1.511c0.032-0.171,2.456,0.069,6.804,0.573c2.184,0.198,4.854,0.441,7.956,0.724
						c3.11,0.212,6.64,0.532,10.554,0.776c15.651,1.029,37.307,2.067,61.237,2.659c11.964,0.341,23.371,0.482,33.746,0.617
						c10.375,0.066,19.723,0.1,27.571,0.009c3.925-0.042,7.477-0.056,10.593-0.143c3.117-0.079,5.808-0.069,8-0.162
						C462.598,620.632,465.037,620.639,465.049,620.806z"/>
				</g>
			</g>
		</g>
		<g>
			<g>
				<g>
					<path style="fill:#B9314E;" d="M195.995,582.944c-0.116,0.032-0.586-1.354-1.379-4.036c-0.425-1.335-0.804-3.02-1.282-5.005
						c-0.231-0.994-0.5-2.062-0.745-3.211c-0.232-1.152-0.479-2.379-0.741-3.678c-1.061-5.196-2.099-11.596-3.209-19.038
						c-1.041-7.45-2.165-15.942-3.172-25.352c-2.079-18.813-4.001-41.262-5.716-66.204c-0.412-6.238-0.882-12.621-1.206-19.164
						c-0.313-6.543-0.632-13.224-0.958-20.024c-0.379-13.607-0.773-27.696-0.734-42.121c-0.077-28.85,0.546-56.327,1.403-81.299
						c0.376-12.49,0.887-24.349,1.306-35.452c0.231-5.55,0.455-10.91,0.67-16.062c0.108-2.574,0.215-5.096,0.319-7.563
						c0.064-2.466,0.127-4.879,0.188-7.236c0.243-9.468,0.836-18.066,2.048-25.54c1.202-7.464,3.001-13.848,5.555-18.622
						c1.271-2.379,2.725-4.354,4.306-5.752c0.354-0.388,0.805-0.648,1.178-0.955c0.193-0.145,0.383-0.288,0.569-0.428
						c0.203-0.115,0.401-0.227,0.595-0.336c0.393-0.21,0.754-0.432,1.119-0.598c0.377-0.137,0.735-0.268,1.073-0.391
						c0.66-0.288,1.31-0.311,1.833-0.432c0.528-0.125,0.986-0.091,1.349-0.096c0.727,0.004,1.091,0.037,1.091,0.097
						c0,0.06-0.364,0.146-1.06,0.256c-0.347,0.062-0.784,0.084-1.276,0.261c-0.489,0.172-1.092,0.243-1.692,0.568
						c-0.307,0.139-0.631,0.285-0.974,0.44c-0.33,0.18-0.653,0.413-1.004,0.63c-0.174,0.112-0.351,0.227-0.533,0.344
						c-0.165,0.141-0.334,0.286-0.507,0.433c-0.332,0.31-0.733,0.564-1.047,0.95c-1.403,1.378-2.692,3.301-3.818,5.623
						c-2.265,4.657-3.838,10.923-4.838,18.29c-1.012,7.379-1.429,15.882-1.515,25.301c-0.024,2.366-0.049,4.789-0.075,7.266
						c-0.068,2.474-0.139,5.001-0.21,7.581c-0.151,5.154-0.308,10.516-0.47,16.068c-0.309,11.102-0.639,22.964-0.986,35.445
						c-0.681,24.961-1.206,52.403-1.129,81.194c-0.039,14.397,0.33,28.445,0.662,42.013c0.295,6.777,0.585,13.435,0.869,19.957
						c0.288,6.521,0.72,12.911,1.087,19.142c1.539,24.926,3.205,47.359,4.968,66.163c0.85,9.406,1.8,17.894,2.655,25.347
						c0.925,7.44,1.763,13.848,2.616,19.055c0.206,1.304,0.4,2.534,0.583,3.689c0.208,1.15,0.402,2.227,0.583,3.226
						c0.37,1.997,0.639,3.699,0.952,5.051C195.864,581.461,196.109,582.912,195.995,582.944z"/>
				</g>
			</g>
		</g>
		<g>
			<g>
				<g>
					<path style="fill:#B9314E;" d="M544.417,639.737c0.029,0.117-1.099,0.505-3.278,1.139c-1.094,0.306-2.446,0.684-4.045,1.131
						c-1.601,0.446-3.474,0.836-5.571,1.332c-8.398,1.942-20.666,4.285-35.94,6.296c-30.53,4.119-73.083,7.024-120.046,6.112
						c-5.87-0.124-11.667-0.329-17.383-0.526c-2.859-0.14-5.697-0.278-8.513-0.416c-2.809-0.13-5.626-0.276-8.35-0.473
						c-10.973-0.61-21.658-0.871-31.81-1.366c-20.315-0.925-38.637-2.417-53.872-4.99c-15.204-2.545-27.426-6.26-34.813-11.068
						c-3.687-2.37-6.071-4.966-7.192-6.996c-1.15-2.023-1.3-3.264-1.225-3.278c0.15-0.057,0.529,1.092,1.811,2.897
						c1.256,1.816,3.657,4.116,7.311,6.227c7.314,4.282,19.388,7.588,34.491,9.797c15.13,2.239,33.356,3.474,53.622,4.22
						c10.141,0.407,20.776,0.598,31.875,1.168c2.79,0.188,5.539,0.32,8.345,0.441c2.798,0.13,5.618,0.26,8.459,0.392
						c5.69,0.184,11.467,0.383,17.313,0.506c46.783,0.909,89.192-1.598,119.676-5.079c15.254-1.691,27.523-3.656,35.97-5.185
						c2.109-0.392,3.999-0.677,5.616-1.017c1.622-0.317,2.996-0.586,4.106-0.803C543.202,639.783,544.387,639.622,544.417,639.737z"
						/>
				</g>
			</g>
		</g>
	</g>
	<g>
		<path style="fill:#A37B45;" d="M620.767,371.033c-13.547-0.425-21.198,5.316-25.355,10.629
			c-0.858-9.968-1.968-22.618-2.841-32.511c2.189-1.233,5.126-2.426,8.825-3.004L620.767,371.033z"/>
		<path style="fill:#00BD9C;" d="M601.396,346.147c-3.699,0.578-6.636,1.771-8.825,3.004c-0.821-9.294-1.431-16.175-1.431-16.175
			L601.396,346.147z"/>
		<path style="fill:#00BD9C;" d="M700.125,599.447c-5.757-7.49-13.351-6.45-13.351-6.45c-10.422,2.637-13.683,8.589-14.113,14.318
			l-77.147-224.368c-0.04-0.425-0.079-0.854-0.102-1.285c4.157-5.313,11.809-11.055,25.355-10.629l0.438,0.569l77.928,224.717
			C699.483,597.336,699.824,598.379,700.125,599.447z"/>
		<path style="fill:#A37B45;" d="M701.049,603.774c0.942,7.06-4.615,12.058-11.131,13.402c-14.017,2.895-17.258-9.861-17.258-9.861
			c0.431-5.729,3.691-11.682,14.113-14.318c0,0,7.594-1.04,13.351,6.45c0.002,0.016,0.002,0.016,0.002,0.016
			C700.529,600.888,700.859,602.327,701.049,603.774z"/>
		<path style="fill:#00BD9C;" d="M689.616,602.383c-3.354-0.158-7.828,1.941-7.59,5.784c0.259,4.204,5.827,4.372,8.782,3.161
			C695.351,609.47,695.986,602.675,689.616,602.383z"/>
		<g>
			<g>
				<g>
					<path style="fill:#338B79;" d="M672.663,607.315c-0.074,0.024-0.419-0.736-1.008-2.209c-0.588-1.473-1.419-3.655-2.467-6.475
						c-2.096-5.639-5.058-13.819-8.67-23.941c-3.598-10.129-7.911-22.168-12.543-35.603c-4.61-13.442-9.677-28.217-14.994-43.721
						c-10.58-31.029-20.02-59.105-26.784-79.524c-3.377-10.202-6.073-18.47-7.887-24.199c-0.907-2.865-1.594-5.095-2.035-6.614
						c-0.44-1.52-0.637-2.329-0.562-2.354c0.074-0.024,0.416,0.739,0.997,2.213c0.582,1.474,1.403,3.659,2.44,6.48
						c2.071,5.642,4.997,13.827,8.566,23.955c7.136,20.235,16.852,48.336,27.422,79.337c10.499,31.034,20.011,59.151,26.898,79.51
						c3.419,10.191,6.15,18.452,7.988,24.179c0.92,2.862,1.616,5.092,2.064,6.611C672.537,606.48,672.737,607.29,672.663,607.315z"
						/>
				</g>
			</g>
		</g>
		<g>
			<path style="opacity:0.4;fill:#ABF6E8;" d="M628.218,407.879c-0.822,0.316-4.063-6.258-7.238-14.664
				c-3.002-8.504-4.761-15.616-3.922-15.884c0.834-0.267,3.925,6.354,6.901,14.781C627.126,400.498,629.033,407.564,628.218,407.879
				z"/>
			<path style="opacity:0.4;fill:#ABF6E8;" d="M633.466,419.585c-0.313,0.302-0.966,0.15-1.777-0.467
				c-0.731-0.636-1.553-1.752-1.977-3.094c-0.905-2.71-0.388-4.958,0.445-5.078c0.892-0.137,1.803,1.843,2.56,4.049
				c0.358,1.135,0.694,2.077,0.845,2.886C633.764,418.626,633.788,419.282,633.466,419.585z"/>
		</g>
		<g>
			<g>
				<g>
					<path style="fill:#338B79;" d="M645.266,510.715c0.297-0.103,2.162,4.443,4.936,11.87c2.774,7.428,6.457,17.736,10.39,29.161
						c4.096,11.358,7.701,21.681,10.198,29.198c2.5,7.518,3.9,12.227,3.607,12.338c-0.292,0.111-2.224-4.397-5.111-11.78
						c-2.885-7.383-6.735-17.637-10.837-29.011c-3.934-11.426-7.377-21.818-9.763-29.381
						C646.299,515.549,644.971,510.818,645.266,510.715z"/>
				</g>
			</g>
		</g>
		<g>
			<g>
				<g>
					<path style="fill:#338B79;" d="M643.531,506.651c-0.241,0.072-0.853-1.123-1.643-3.105c-0.817-1.976-1.692-4.778-2.829-7.82
						c-2.17-6.113-3.55-11.216-3.079-11.394c0.468-0.177,2.618,4.665,4.799,10.812c1.141,3.054,1.83,5.939,2.336,8.02
						C643.594,505.252,643.77,506.579,643.531,506.651z"/>
				</g>
			</g>
		</g>
	</g>
	<g>
		<g>
			<path style="fill:#777671;" d="M650.875,85.587v0.011c-1.245,2.173-2.557,4.336-3.878,6.444
				c-0.525,0.831-1.049,1.661-1.562,2.468c-0.393,0.623-0.787,1.245-1.18,1.857c-0.24,0.383-0.482,0.765-0.722,1.136
				c-1.004,1.562-1.977,3.08-2.883,4.544c-0.416,0.655-0.819,1.31-1.202,1.944c0,0-6.553-12.015-22.936-15.291l-0.186,0.306
				c1.868-3.779,3.921-7.428,5.963-11.119c0.567-1.027,1.138-2.042,1.727-3.059c0.044-0.065,0.076-0.142,0.12-0.207
				c0.479-0.83,0.962-1.648,1.453-2.468c0.098-0.175,0.207-0.339,0.305-0.514h0.012C632.546,70.503,649.258,78.87,650.875,85.587z"
				/>
			<path style="fill:#FFC500;" d="M639.449,103.991l-3.964,6.751L529.133,291.857l-0.055,0.043
				c-0.208-0.906-0.437-1.813-0.711-2.709c-0.457-1.562-0.961-3.113-1.628-4.598c-0.73-1.638-1.342-1.42-2.938-1.256
				c-1.507,0.164-3.035,0.415-4.553,0.393c-2.579-0.043-4.151-1.42-5.146-3.768c-0.427-0.972-0.787-1.977-1.093-2.993
				c-0.283-0.94-3.483,0.109-3.986,0.251c-1.42,0.416-2.818,0.896-4.185,1.475l0.263-1.037L616.304,89.06
				c0-0.011,0.012-0.033,0.022-0.054l0.186-0.306C632.896,91.976,639.449,103.991,639.449,103.991z"/>
			<path style="fill:#FF9E00;" d="M624.705,91.431c-0.824,1.214-103.102,178.074-111.559,185.946
				c0.277,0.876,0.589,1.744,0.958,2.585c0.994,2.348,2.566,3.725,5.146,3.768c1.518,0.022,3.046-0.229,4.553-0.393
				c0,0,102.948-177.413,108.93-186.983C630.773,94.724,628.163,92.705,624.705,91.431z"/>
			<path style="fill:#A37B45;" d="M529.079,291.9l-24.38,22.904c-0.73-1.071-1.572-1.966-2.15-2.425
				c-1.813-1.409-3.595-1.966-5.571-2.217l7.863-31.467c1.366-0.579,2.765-1.059,4.185-1.475c0.503-0.142,3.703-1.19,3.986-0.251
				c0.306,1.016,0.666,2.021,1.093,2.993c0.994,2.348,2.566,3.725,5.146,3.768c1.518,0.022,3.046-0.229,4.553-0.393
				c1.596-0.164,2.207-0.382,2.938,1.256c0.667,1.485,1.171,3.036,1.628,4.598C528.642,290.087,528.871,290.994,529.079,291.9z"/>
			<path style="fill:#454343;" d="M504.699,314.804l-11.609,10.912l3.888-15.554c1.977,0.252,3.758,0.809,5.571,2.217
				C503.126,312.838,503.968,313.733,504.699,314.804z"/>
			<path style="fill:#00BD9C;" d="M639.175,85.969c-4.864-3.625-11.412-5.831-17.178-7.557c-0.827,1.494-1.654,2.985-2.47,4.482
				c9.515,2.61,17.95,6.917,24.033,14.554c0.798-1.248,2.032-3.22,2.851-4.515C643.995,90.213,642.093,88.142,639.175,85.969z"/>
			<path style="fill:none;stroke:#262424;stroke-width:1.0922;stroke-miterlimit:10;" d="M631.443,117.458"/>
			<path style="fill:#FC657E;" d="M650.875,85.587c-1.616-6.717-18.328-15.084-24.969-13.948c3.615-5.974,7.69-11.708,12.539-16.755
				c2.151-2.239,4.861-3.396,7.579-3.604c5.921-0.438,11.764,3.637,12.518,10.802C659.261,68.996,655.581,77.384,650.875,85.587z"/>
		</g>
		<g>
			<path style="opacity:0.6;fill:#FFF2CC;" d="M528.61,245.644c0.622,0.278-2.684,6.827-7.378,14.616
				c-4.843,7.75-9.252,13.775-9.849,13.453c-0.595-0.321,2.817-6.813,7.618-14.494C523.68,251.451,527.988,245.368,528.61,245.644z"
				/>
			<path style="opacity:0.7;fill:#FFF2CC;" d="M534.746,234.296c0.371-0.018,0.572,0.481,0.505,1.404
				c-0.121,0.889-0.556,2.165-1.347,3.358c-1.565,2.44-3.47,3.693-3.954,3.268c-0.529-0.446,0.499-2.378,1.766-4.376
				c0.667-1.008,1.201-1.869,1.726-2.523C533.895,234.785,534.368,234.313,534.746,234.296z"/>
		</g>
		<g>
			<g>
				<g>
					<path style="fill:#E69725;" d="M639.084,104.355c0.065,0.052-0.293,0.721-1.03,1.937c-0.372,0.604-0.831,1.352-1.374,2.234
						c-0.522,0.901-1.126,1.941-1.805,3.111c-1.382,2.323-3.037,5.189-4.951,8.523c-1.917,3.331-4.101,7.124-6.513,11.317
						c-9.634,16.786-22.94,39.97-37.625,65.559c-14.738,25.563-28.209,48.646-38.196,65.223c-4.989,8.29-9.107,14.955-12.078,19.488
						c-1.45,2.284-2.679,4.005-3.53,5.153c-0.848,1.151-1.324,1.729-1.393,1.681c-0.068-0.049,0.275-0.722,0.987-1.955
						c0.716-1.23,1.805-3.014,3.131-5.375c2.693-4.69,6.589-11.476,11.402-19.861c9.618-16.784,22.903-39.966,37.573-65.565
						c14.737-25.564,28.229-48.648,38.249-65.219c2.504-4.143,4.78-7.885,6.828-11.144c2.026-3.27,3.804-6.07,5.315-8.325
						c0.751-1.128,1.419-2.131,1.997-3c0.6-0.858,1.153-1.56,1.585-2.131C638.532,104.869,639.019,104.303,639.084,104.355z"/>
				</g>
			</g>
		</g>
		<g>
			<g>
				<g>
					<path style="fill:#D14066;" d="M651.101,85.788c-0.174-0.089,1.166-2.75,3.002-7.16c0.903-2.208,1.918-4.865,2.712-7.892
						c0.38-1.515,0.728-3.12,0.865-4.795c0.176-1.67,0.148-3.421-0.254-5.11c-0.369-1.686-1.201-3.196-2.212-4.519
						c-1.023-1.302-2.231-2.374-3.521-3.158c-2.575-1.621-5.495-1.843-7.683-1.199c-2.229,0.609-3.768,1.817-4.793,2.632
						c-0.969,0.896-1.518,1.405-1.588,1.346c-0.061-0.048,0.364-0.662,1.261-1.692c0.957-0.946,2.479-2.337,4.876-3.117
						c2.348-0.819,5.643-0.669,8.502,1.06c1.433,0.833,2.767,1.986,3.891,3.389c0.26,0.366,0.522,0.735,0.786,1.107
						c0.258,0.376,0.464,0.793,0.7,1.193c0.255,0.388,0.378,0.864,0.564,1.303c0.082,0.225,0.179,0.448,0.249,0.677l0.159,0.7
						c0.443,1.872,0.454,3.751,0.256,5.504c-0.163,1.765-0.548,3.421-0.97,4.972c-0.877,3.097-1.994,5.76-3.008,7.948
						c-1.023,2.186-1.946,3.904-2.625,5.067C651.595,85.208,651.173,85.826,651.101,85.788z"/>
				</g>
			</g>
		</g>
		<g>
			<g>
				<g>
					<path style="fill:#D14066;" d="M654.013,60.302c-0.082,0.021-0.237-0.188-0.443-0.572c-0.178-0.396-0.506-0.923-0.904-1.552
						c-0.846-1.217-2.424-2.617-4.635-3.106c-1.092-0.251-2.178-0.294-3.165-0.245c-0.982,0.096-1.877,0.228-2.605,0.446
						c-1.468,0.393-2.345,0.824-2.445,0.659c-0.081-0.118,0.656-0.833,2.165-1.478c0.745-0.34,1.698-0.582,2.776-0.749
						c1.083-0.121,2.307-0.111,3.557,0.177c2.548,0.551,4.377,2.376,5.095,3.851c0.346,0.757,0.567,1.383,0.613,1.843
						C654.095,60.028,654.094,60.28,654.013,60.302z"/>
				</g>
			</g>
		</g>
		<g>
			<g>
				<g>
					<path style="fill:#D14066;" d="M654.741,63.579c0.085-0.006,0.173,0.245,0.259,0.712c0.081,0.467,0.197,1.153,0.173,1.999
						c0.059,1.7-0.261,4.042-0.966,6.522c-0.676,2.496-1.73,4.596-2.533,6.069c-0.894,1.431-1.521,2.259-1.666,2.172
						c-0.146-0.086,0.212-1.063,0.891-2.557c0.587-1.538,1.482-3.617,2.133-6.022c0.678-2.39,1.118-4.607,1.277-6.231
						c0.133-0.812,0.15-1.472,0.215-1.934C654.583,63.848,654.657,63.585,654.741,63.579z"/>
				</g>
			</g>
		</g>
		<g>
			<g>
				<g>
					<path style="fill:#E69725;" d="M529.135,292.585c-0.168,0.013-0.376-0.458-0.607-1.311c-0.108-0.425-0.24-0.944-0.393-1.546
						c-0.154-0.596-0.303-1.282-0.54-1.992c-0.102-0.364-0.215-0.739-0.376-1.09c-0.072-0.181-0.146-0.365-0.221-0.552
						c-0.087-0.171-0.191-0.323-0.284-0.49c-0.418-0.661-0.824-0.994-1.563-1.069c-0.762-0.09-1.851,0.068-3.021,0.138
						c-1.181,0.085-2.468,0.06-3.793-0.214c-0.337-0.08-0.657-0.113-0.999-0.238c-0.347-0.124-0.68-0.262-0.984-0.426
						c-0.621-0.324-1.205-0.748-1.688-1.253c-0.981-1.019-1.451-2.241-1.826-3.176c-0.379-0.973-0.699-1.588-1.159-1.821
						c-0.479-0.277-1.265-0.301-1.967-0.238c-1.439,0.131-2.68,0.483-3.535,0.645c-0.861,0.182-1.371,0.227-1.438,0.07
						c-0.064-0.151,0.32-0.491,1.098-0.952c0.79-0.441,1.934-1.059,3.604-1.458c0.829-0.166,1.853-0.375,3.092,0.11
						c0.605,0.25,1.158,0.734,1.516,1.244c0.369,0.51,0.612,1.027,0.84,1.506c0.445,0.962,0.849,1.803,1.477,2.408
						c0.31,0.305,0.675,0.557,1.091,0.768c0.213,0.111,0.425,0.193,0.637,0.27c0.213,0.082,0.495,0.106,0.741,0.166
						c1.025,0.212,2.104,0.264,3.181,0.214c1.085-0.018,2.189-0.182,3.493,0.03c0.163,0.033,0.32,0.051,0.483,0.1l0.494,0.194
						c0.335,0.109,0.611,0.337,0.886,0.549c0.298,0.2,0.46,0.467,0.656,0.712c0.092,0.124,0.19,0.248,0.27,0.372l0.178,0.374
						c0.112,0.248,0.235,0.493,0.324,0.73c0.067,0.236,0.133,0.468,0.197,0.695c0.143,0.455,0.213,0.884,0.271,1.292
						c0.148,0.819,0.181,1.547,0.211,2.188c0.043,0.641,0.017,1.19-0.01,1.64C529.413,292.073,529.302,292.571,529.135,292.585z"/>
				</g>
			</g>
		</g>
		<g>
			<g>
				<g>
					<path style="fill:#E69725;" d="M631.634,108.328c0.103,0.063-0.567,1.406-1.865,3.779c-1.298,2.372-3.225,5.775-5.635,9.958
						c-4.819,8.369-11.522,19.91-19.058,32.563c-3.803,6.307-7.427,12.316-10.724,17.782c-1.663,2.724-3.244,5.312-4.723,7.735
						c-1.497,2.414-2.941,4.635-4.242,6.671c-2.612,4.066-4.752,7.339-6.263,9.579c-1.511,2.24-2.393,3.446-2.493,3.38
						c-0.1-0.066,0.593-1.397,1.928-3.747c1.334-2.351,3.313-5.719,5.787-9.859c1.238-2.069,2.596-4.335,4.052-6.768
						c1.437-2.448,2.971-5.063,4.585-7.815c3.26-5.485,6.843-11.516,10.604-17.845c7.534-12.653,14.401-24.09,19.494-32.306
						c2.548-4.108,4.636-7.416,6.111-9.682C630.668,109.488,631.533,108.265,631.634,108.328z"/>
				</g>
			</g>
		</g>
		<g>
			<g>
				<g>
					<path style="fill:#AEACA4;" d="M648.915,88.699c-0.072,0.044-0.369-0.252-0.839-0.817c-0.243-0.275-0.491-0.647-0.847-1.025
						c-0.348-0.383-0.742-0.819-1.179-1.3c-1.778-1.892-4.581-4.162-8.045-6.078c-3.471-1.904-6.878-3.125-9.382-3.839
						c-2.505-0.743-4.113-0.954-4.102-1.14c0.002-0.152,1.685-0.245,4.306,0.299c2.618,0.514,6.177,1.638,9.768,3.608
						c3.586,1.982,6.433,4.469,8.102,6.576c0.398,0.54,0.759,1.029,1.075,1.459c0.313,0.43,0.511,0.851,0.698,1.174
						C648.829,88.275,648.988,88.656,648.915,88.699z"/>
				</g>
			</g>
		</g>
		<g>
			<g>
				<g>
					<path style="fill:#AEACA4;" d="M640.906,101.079c-0.178,0.081-0.911-1.276-2.579-3.103c-1.633-1.851-4.194-4.15-7.268-6.337
						c-3.1-2.146-6.144-3.743-8.478-4.495c-2.323-0.806-3.874-0.785-3.884-0.992c-0.03-0.128,1.607-0.468,4.123,0.161
						c2.518,0.574,5.749,2.114,8.94,4.325c3.166,2.252,5.714,4.728,7.234,6.789C640.554,99.469,641.042,101.032,640.906,101.079z"/>
				</g>
			</g>
		</g>
	</g>
	<g>
		<path style="fill:#262424;" d="M131.033,637.099c-0.818,4.816-3.608,8.922-3.608,8.922c-26.83-2.349-36.221-9.727-36.221-9.727
			c-0.537-3.071,0.282-6.722,1.154-9.431c0.885,0.751,2.308,1.49,4.547,2.052l27.836,8.05
			C124.742,636.965,128.176,638.253,131.033,637.099z"/>
		<path style="fill:#262424;" d="M161.23,514.34c0.026,0.255-0.657,5.782-0.939,5.58c-0.053-0.026-0.093-0.066-0.147-0.095
			c-10.866-7.309-42.78-10.972-42.78-10.972h-0.013c0.295-1.061,0.537-1.947,0.724-2.59c1.489-2.455,4.2-5.836,4.521-6.118
			c3.287-2.965,7.15-5.245,10.236-8.451c2.119-2.198,4.185-4.52,6.09-6.935c0.201-0.24,0.388-0.484,0.577-0.725
			c4.695-2.012,8.384,1.007,8.384,1.007c0.067,0.268,0.148,0.55,0.228,0.818c1.329,4.734,3.863,9.322,6.01,13.696
			C156.266,503.957,160.895,509.524,161.23,514.34z"/>
		<path style="fill:#C8FF00;" d="M160.143,519.826l-25.676,112.779c-0.591,2.563-1.932,3.878-3.434,4.494
			c-2.857,1.154-6.292-0.134-6.292-0.134l-27.836-8.05c-2.24-0.561-3.662-1.301-4.547-2.052c-1.785-1.488-1.489-2.978-1.489-2.978
			c-0.296-17.694,21.263-96.292,26.481-115.031h0.013C117.363,508.854,149.277,512.517,160.143,519.826z"/>
		<path style="fill:#C8FF00;" d="M149.118,475.777c0.105,1.635-1.169,9.533-1.236,9.266c0,0-3.689-3.019-8.384-1.007
			c-0.189,0.24,1.005-5.868,1.177-6.683c0.097-0.461,0.113-0.855,0.541-1.152c0.228-0.156,0.646-0.156,0.907-0.19
			c0.606-0.08,1.213-0.139,1.822-0.197c1.38-0.135,2.766-0.172,4.149-0.262C148.365,475.534,149.101,475.493,149.118,475.777z"/>
		<g>
			<g>
				<g>
					<path style="fill:#B6D826;" d="M160.067,520.256c0.174,0.054-0.334,2.235-1.227,6.178c-0.895,3.942-2.163,9.651-3.653,16.725
						c-3.011,14.141-6.851,33.743-11.467,55.327c-1.527,7.079-3.055,13.933-4.658,20.401c-0.805,3.234-1.623,6.373-2.524,9.392
						c-0.453,1.509-0.923,2.988-1.463,4.437c-0.27,0.725-0.561,1.439-0.91,2.157c-0.173,0.357-0.369,0.718-0.613,1.09
						c-0.146,0.194-0.241,0.367-0.465,0.583c-0.203,0.234-0.512,0.397-0.801,0.563c-1.734,0.607-3.255,0.684-4.787,0.706
						c-1.513-0.003-2.962-0.134-4.358-0.315c-2.793-0.374-5.377-0.952-7.781-1.569c-4.802-1.252-8.874-2.681-12.183-3.968
						c-3.306-1.295-5.842-2.474-7.515-3.403c-0.836-0.466-1.456-0.871-1.841-1.205c-0.191-0.171-0.328-0.314-0.391-0.45
						c-0.062-0.127-0.01-0.211,0.013-0.225c-0.178,0.149,3.504,1.86,10.175,4.061c3.336,1.096,7.422,2.344,12.17,3.423
						c2.373,0.531,4.915,1.024,7.595,1.316c1.338,0.143,2.712,0.232,4.093,0.205c1.35-0.028,2.826-0.197,3.944-0.62
						c0.014-0.027,0.036-0.015,0.066-0.066c0.046-0.028,0.131-0.177,0.203-0.273c0.15-0.24,0.304-0.525,0.444-0.833
						c0.285-0.61,0.546-1.278,0.789-1.966c0.488-1.375,0.927-2.825,1.351-4.309c0.844-2.972,1.622-6.095,2.394-9.314
						c1.537-6.443,3.032-13.287,4.557-20.355c4.61-21.556,8.735-41.124,12.203-55.191c1.718-7.036,3.259-12.7,4.453-16.579
						C159.071,522.297,159.904,520.206,160.067,520.256z"/>
				</g>
			</g>
		</g>
		<g>
			<g>
				<g>
					<path style="fill:#B6D826;" d="M128.32,630.257c-0.349-0.058,0.071-3.823,1.037-9.879c0.833-6.09,2.782-14.314,4.944-23.392
						c4.668-18.036,8.485-32.608,9.222-32.463c0.344,0.074-0.208,3.821-1.38,9.828c-1.119,6.026-3.092,14.225-5.364,23.258
						c-2.153,9.04-4.373,17.172-5.65,23.125C129.717,626.664,128.667,630.315,128.32,630.257z"/>
				</g>
			</g>
		</g>
		<g>
			<g>
				<g>
					<path style="fill:#B6D826;" d="M144.417,558.711c-0.687-0.175-0.671-2.688,0.028-5.606c0.516-2.906,1.502-5.201,2.208-5.125
						c0.699,0.075,0.836,2.618,0.289,5.671C146.232,556.619,145.1,558.886,144.417,558.711z"/>
				</g>
			</g>
		</g>
		<path style="opacity:0.8;fill:#F3FCCD;" d="M111.749,556.905c-1.145-0.289,0.136-9.951,2.858-21.563
			c2.859-11.662,6.096-20.865,7.233-20.547c1.13,0.314-0.248,9.945-3.081,21.501C116.026,547.956,112.887,557.192,111.749,556.905z"
			/>
		<path style="opacity:0.8;fill:#F3FCCD;" d="M105.946,571.169c-1.163-0.046-1.843-2.688-1.117-5.526
			c0.85-3.253,7.418-3.558,3.332-4.426c1.146,0.245,1.499,2.784,0.801,5.459C108.293,569.303,107.146,571.227,105.946,571.169z"/>
	</g>
</g>
</svg>
